<?xml version="1.0" encoding="UTF-8"?>
<!DOCTYPE svg PUBLIC "-//W3C//DTD SVG 1.1//EN" "http://www.w3.org/Graphics/SVG/1.1/DTD/svg11.dtd">
<svg xmlns="http://www.w3.org/2000/svg" version="1.1" width="1306px" height="270px" style="shape-rendering:geometricPrecision; text-rendering:geometricPrecision; image-rendering:optimizeQuality; fill-rule:evenodd; clip-rule:evenodd" xmlns:xlink="http://www.w3.org/1999/xlink">
<g><path style="opacity:1" fill="#fffefe" d="M 107.5,-0.5 C 109.5,-0.5 111.5,-0.5 113.5,-0.5C 125.429,9.93659 136.262,21.6033 146,34.5C 150.918,42.0001 155.584,49.6667 160,57.5C 162.399,63.3634 164.399,69.3634 166,75.5C 175.253,82.0824 183.92,89.4157 192,97.5C 198.377,106.257 203.711,115.59 208,125.5C 213.308,141.729 210.808,156.563 200.5,170C 199.167,170.667 197.833,170.667 196.5,170C 185.821,162.662 173.988,158.495 161,157.5C 149.4,161.237 142.9,168.903 141.5,180.5C 137.079,182.792 132.912,185.459 129,188.5C 128.5,187.333 127.667,186.5 126.5,186C 120.399,183.019 114.065,180.519 107.5,178.5C 106.522,178.977 105.689,179.643 105,180.5C 104.621,188.596 105.787,196.429 108.5,204C 114.206,203.472 118.873,200.805 122.5,196C 124.39,194.888 126.39,194.054 128.5,193.5C 132.984,194.716 137.318,196.216 141.5,198C 145.141,204.561 148.975,211.061 153,217.5C 157.202,221.367 161.035,225.533 164.5,230C 166.403,230.774 168.07,230.44 169.5,229C 162.926,223.096 157.092,216.596 152,209.5C 145.92,196.916 144.92,183.916 149,170.5C 149.333,170.167 149.667,169.833 150,169.5C 151.167,171.333 152.333,173.167 153.5,175C 154.793,175.49 156.127,175.657 157.5,175.5C 156.992,172.148 155.658,169.148 153.5,166.5C 158.416,160.22 163.083,160.553 167.5,167.5C 169.62,166.597 169.954,165.263 168.5,163.5C 179.517,164.238 189.184,168.404 197.5,176C 205.433,185.035 210.266,195.535 212,207.5C 215.399,230.727 209.899,251.394 195.5,269.5C 175.833,269.5 156.167,269.5 136.5,269.5C 136.287,263.374 134.953,257.541 132.5,252C 136.333,248.167 140.167,244.333 144,240.5C 146.583,236.014 145.416,232.848 140.5,231C 134.55,229.721 128.55,228.721 122.5,228C 118.547,221.418 113.88,215.418 108.5,210C 106.833,210.667 105.167,210.667 103.5,210C 99.7105,215.079 96.0438,220.245 92.5,225.5C 85.2897,226.64 78.2897,228.307 71.5,230.5C 65.7994,227.646 60.4661,224.146 55.5,220C 53.8659,219.506 52.1992,219.34 50.5,219.5C 50.33,220.822 50.6634,221.989 51.5,223C 63.089,228.585 72.9223,236.418 81,246.5C 82.6398,248.579 83.8064,250.912 84.5,253.5C 82.6649,254.192 80.8316,253.858 79,252.5C 76.1738,253.917 76.0072,255.417 78.5,257C 81.1168,257.822 83.7835,258.322 86.5,258.5C 86.5,259.833 86.5,261.167 86.5,262.5C 84.5,262.5 82.5,262.5 80.5,262.5C 80.33,263.822 80.6634,264.989 81.5,266C 83.4727,266.495 85.4727,266.662 87.5,266.5C 87.5,267.5 87.5,268.5 87.5,269.5C 62.8333,269.5 38.1667,269.5 13.5,269.5C 7.29239,264.294 2.62572,257.96 -0.5,250.5C -0.5,244.5 -0.5,238.5 -0.5,232.5C 1.92519,223.978 5.75852,215.978 11,208.5C 17.5835,201.579 24.4168,195.079 31.5,189C 0.775283,170.009 -7.72472,143.509 6,109.5C 11.4326,98.9632 18.0993,89.2965 26,80.5C 32.465,56.7362 43.2983,35.2362 58.5,16C 59.8989,15.4054 61.2322,15.5721 62.5,16.5C 74.7949,30.0874 84.2949,45.4208 91,62.5C 94.8062,40.9384 100.306,19.9384 107.5,-0.5 Z M 136.5,90.5 C 149.098,91.0487 159.598,96.0487 168,105.5C 172.078,109.984 175.411,114.984 178,120.5C 180.806,133.387 176.306,142.553 164.5,148C 143.59,151.043 129.09,142.876 121,123.5C 117.963,108.44 123.129,97.4401 136.5,90.5 Z M 59.5,97.5 C 86.4457,97.7571 97.6124,111.09 93,137.5C 83.4914,153.266 69.9914,157.766 52.5,151C 39.0581,147.554 33.8914,139.054 37,125.5C 41.3631,113.638 48.8631,104.304 59.5,97.5 Z M 126.5,153.5 C 130.409,152.737 131.742,154.07 130.5,157.5C 125.094,159.435 123.761,158.101 126.5,153.5 Z M 136.5,167.5 C 141.384,167.896 141.718,169.396 137.5,172C 133.931,174.523 129.931,175.856 125.5,176C 117.337,177.05 109.337,176.383 101.5,174C 100.663,172.989 100.33,171.822 100.5,170.5C 111.542,173.289 122.542,173.123 133.5,170C 134.571,169.148 135.571,168.315 136.5,167.5 Z M 43.5,189.5 C 51.6047,191.878 59.938,193.045 68.5,193C 69.9733,193.71 70.6399,194.876 70.5,196.5C 62.7795,196.762 55.1128,196.262 47.5,195C 45.221,194.527 43.221,193.527 41.5,192C 42.3805,191.292 43.0472,190.458 43.5,189.5 Z M 73.5,192.5 C 76.8606,193.203 77.1939,194.537 74.5,196.5C 72.3576,195.563 72.0243,194.23 73.5,192.5 Z"/></g>
<g><path style="opacity:1" fill="#fefffe" d="M 172.5,8.5 C 173.496,8.41423 174.329,8.74756 175,9.5C 176.202,15.3094 177.869,20.9761 180,26.5C 181.916,28.2095 184.082,29.5428 186.5,30.5C 187.386,31.325 187.719,32.325 187.5,33.5C 185.097,33.393 183.264,34.393 182,36.5C 181.065,42.1872 180.065,47.8539 179,53.5C 177.799,47.2316 175.799,41.2316 173,35.5C 170.913,34.2062 168.746,33.0395 166.5,32C 173.414,25.5763 175.414,17.743 172.5,8.5 Z"/></g>
<g><path style="opacity:0.93" fill="#fefffe" d="M 1305.5,72.5 C 1305.5,78.5 1305.5,84.5 1305.5,90.5C 1299.5,90.5 1293.5,90.5 1287.5,90.5C 1287.05,120.203 1287.55,149.87 1289,179.5C 1291.67,187.26 1297.17,190.593 1305.5,189.5C 1305.5,196.167 1305.5,202.833 1305.5,209.5C 1284.72,210.557 1272.22,200.89 1268,180.5C 1267.5,150.502 1267.33,120.502 1267.5,90.5C 1263.56,90.7935 1259.73,90.4601 1256,89.5C 1255.5,83.8431 1255.33,78.1764 1255.5,72.5C 1259.5,72.5 1263.5,72.5 1267.5,72.5C 1267.33,61.1618 1267.5,49.8284 1268,38.5C 1270.89,37.2203 1274.06,36.5536 1277.5,36.5C 1280.75,36.5207 1283.92,36.854 1287,37.5C 1287.5,49.1619 1287.67,60.8286 1287.5,72.5C 1293.5,72.5 1299.5,72.5 1305.5,72.5 Z"/></g>
<g><path style="opacity:1" fill="#fefffe" d="M 204.5,40.5 C 206.372,43.5287 209.039,45.6954 212.5,47C 208.709,49.4005 206.542,52.9005 206,57.5C 205.983,52.6256 203.816,49.1256 199.5,47C 202.012,45.4729 203.679,43.3063 204.5,40.5 Z"/></g>
<g><path style="opacity:1" fill="#fefffe" d="M 185.5,65.5 C 186.552,65.3505 187.552,65.5172 188.5,66C 187.549,66.7175 187.383,67.5509 188,68.5C 189.205,69.0712 190.372,69.7379 191.5,70.5C 189.803,71.3636 188.637,72.6969 188,74.5C 186.758,72.4593 184.925,71.2927 182.5,71C 183.416,70.6258 184.25,70.1258 185,69.5C 184.645,68.0406 184.811,66.7072 185.5,65.5 Z"/></g>
<g><path style="opacity:0.922" fill="#fefffe" d="M 277.5,70.5 C 291.397,67.8762 302.897,71.8762 312,82.5C 313.599,85.3778 315.433,88.0445 317.5,90.5C 328.148,75.0105 342.815,68.5105 361.5,71C 372.767,75.6044 380.267,83.771 384,95.5C 385,100.167 386,104.833 387,109.5C 387.667,142.5 387.667,175.5 387,208.5C 380.333,209.833 373.667,209.833 367,208.5C 366.667,175.167 366.333,141.833 366,108.5C 361.844,90.4474 351.677,85.9474 335.5,95C 329.387,101.121 324.887,108.288 322,116.5C 321.667,147.167 321.333,177.833 321,208.5C 314.59,209.478 308.09,209.811 301.5,209.5C 301.667,176.832 301.5,144.165 301,111.5C 297.939,91.3981 287.439,85.8981 269.5,95C 263.098,100.969 258.598,108.136 256,116.5C 255.667,147.167 255.333,177.833 255,208.5C 248.59,209.478 242.09,209.811 235.5,209.5C 235.5,163.833 235.5,118.167 235.5,72.5C 242.167,72.5 248.833,72.5 255.5,72.5C 255.334,76.8461 255.501,81.1794 256,85.5C 262.009,78.629 269.175,73.629 277.5,70.5 Z"/></g>
<g><path style="opacity:0.922" fill="#fefffe" d="M 448.5,70.5 C 477.28,67.7827 495.113,80.4493 502,108.5C 507.411,133.452 506.411,158.119 499,182.5C 488.236,207.297 469.736,216.13 443.5,209C 430.394,202.56 421.561,192.393 417,178.5C 408.983,150.509 409.983,122.843 420,95.5C 423.399,89.4325 427.565,83.9325 432.5,79C 437.516,75.4634 442.849,72.6301 448.5,70.5 Z M 455.5,88.5 C 468.72,88.5589 477.22,94.8922 481,107.5C 482.416,112.415 483.416,117.415 484,122.5C 484.667,134.833 484.667,147.167 484,159.5C 483.511,171.037 479.344,180.87 471.5,189C 453.145,196.68 441.312,190.846 436,171.5C 431.069,149.159 431.736,126.826 438,104.5C 441.328,96.2798 447.161,90.9464 455.5,88.5 Z"/></g>
<g><path style="opacity:0.922" fill="#fefffe" d="M 881.5,70.5 C 902.433,66.8296 918.933,73.4963 931,90.5C 933.23,94.9617 934.897,99.6284 936,104.5C 936.107,131.188 936.773,157.855 938,184.5C 939.316,190.596 943.149,193.263 949.5,192.5C 950.618,197.78 950.784,203.113 950,208.5C 936.951,212.812 927.284,208.812 921,196.5C 910.374,208.879 896.874,213.713 880.5,211C 857.915,205.908 846.582,191.742 846.5,168.5C 846.04,152.253 852.374,139.42 865.5,130C 881.424,121.696 898.424,117.863 916.5,118.5C 917.416,99.9148 908.583,89.9148 890,88.5C 881.981,89.2544 874.315,91.2544 867,94.5C 863.703,89.2797 862.037,83.613 862,77.5C 868.302,74.4711 874.802,72.1377 881.5,70.5 Z M 909.5,136.5 C 912.187,136.336 914.854,136.503 917.5,137C 916.677,149.091 916.177,161.258 916,173.5C 910.657,188.26 900.157,194.427 884.5,192C 875.558,190.394 869.725,185.227 867,176.5C 863.604,157.128 871.438,144.962 890.5,140C 897.031,139.155 903.364,137.988 909.5,136.5 Z"/></g>
<g><path style="opacity:0.92" fill="#fefffe" d="M 1072.5,70.5 C 1101.41,68.2313 1117.57,81.5646 1121,110.5C 1121.67,143.167 1121.67,175.833 1121,208.5C 1114.33,209.833 1107.67,209.833 1101,208.5C 1100.67,175.5 1100.33,142.5 1100,109.5C 1096.23,92.6926 1086.06,86.8592 1069.5,92C 1060.36,96.7825 1053.86,103.949 1050,113.5C 1048.69,145.106 1048.02,176.773 1048,208.5C 1041.59,209.478 1035.09,209.811 1028.5,209.5C 1028.5,163.833 1028.5,118.167 1028.5,72.5C 1035.17,72.5 1041.83,72.5 1048.5,72.5C 1048.33,76.8461 1048.5,81.1794 1049,85.5C 1055.52,78.3282 1063.36,73.3282 1072.5,70.5 Z"/></g>
<g><path style="opacity:0.925" fill="#fefffe" d="M 1182.5,70.5 C 1212.1,67.9174 1229.93,81.2507 1236,110.5C 1237.66,119.798 1238.66,129.131 1239,138.5C 1214.91,139.494 1190.74,139.828 1166.5,139.5C 1166.57,150.61 1167.74,161.61 1170,172.5C 1176.14,192.068 1188.3,197.235 1206.5,188C 1211.91,180.755 1215.58,172.755 1217.5,164C 1223.83,163.333 1230.17,163.333 1236.5,164C 1235.46,182.032 1227.46,196.365 1212.5,207C 1179.49,217.409 1158.32,205.909 1149,172.5C 1143.08,146.279 1144.75,120.612 1154,95.5C 1159.98,83.0086 1169.48,74.6753 1182.5,70.5 Z M 1188.5,88.5 C 1198.86,87.6681 1206.69,91.6681 1212,100.5C 1214.55,107.187 1216.38,114.02 1217.5,121C 1200.83,121.667 1184.17,121.667 1167.5,121C 1168.75,112.329 1171.58,104.163 1176,96.5C 1179.67,92.9227 1183.84,90.2561 1188.5,88.5 Z"/></g>
<g><path style="opacity:0.924" fill="#fefffe" d="M 515.5,72.5 C 522.532,72.1697 529.532,72.503 536.5,73.5C 546.909,107.224 557.409,140.891 568,174.5C 574.726,149.393 581.726,124.393 589,99.5C 591.251,97.1066 594.085,96.1066 597.5,96.5C 600.54,96.4169 603.373,97.0836 606,98.5C 613.074,123.628 620.407,148.628 628,173.5C 638.453,139.97 648.62,106.303 658.5,72.5C 665.5,72.5 672.5,72.5 679.5,72.5C 665.445,117.833 651.279,163.166 637,208.5C 633.919,209.146 630.752,209.479 627.5,209.5C 624.061,209.446 620.894,208.78 618,207.5C 611.752,182.911 604.752,158.577 597,134.5C 590.476,159.266 583.642,183.932 576.5,208.5C 570.278,209.809 564.111,209.809 558,208.5C 543.534,163.241 529.367,117.908 515.5,72.5 Z"/></g>
<g><path style="opacity:0.924" fill="#fefffe" d="M 681.5,72.5 C 688.532,72.1697 695.532,72.503 702.5,73.5C 702.808,74.3081 703.308,74.9747 704,75.5C 713.532,108.623 723.532,141.623 734,174.5C 741.284,149.593 748.284,124.593 755,99.5C 757.251,97.1066 760.085,96.1066 763.5,96.5C 766.54,96.4169 769.373,97.0836 772,98.5C 779.464,123.502 786.797,148.502 794,173.5C 804.761,139.987 814.928,106.32 824.5,72.5C 831.5,72.5 838.5,72.5 845.5,72.5C 831.879,117.871 817.712,163.205 803,208.5C 796.924,209.476 790.758,209.81 784.5,209.5C 777.834,184.508 771.001,159.508 764,134.5C 756.529,159.046 749.362,183.713 742.5,208.5C 736.278,209.809 730.111,209.809 724,208.5C 709.489,163.178 695.323,117.845 681.5,72.5 Z"/></g>
<g><path style="opacity:1" fill="#fefffe" d="M 137.5,94.5 C 149.581,95.4607 159.414,100.794 167,110.5C 174.884,118.324 176.551,127.324 172,137.5C 168.25,142.542 163.25,144.875 157,144.5C 141.367,144.353 130.7,137.019 125,122.5C 124.211,116.763 124.544,111.097 126,105.5C 127.416,112.75 131.582,115.083 138.5,112.5C 140.029,110.293 140.695,107.793 140.5,105C 141.222,100.972 139.889,97.9716 136.5,96C 137.056,95.6174 137.389,95.1174 137.5,94.5 Z"/></g>
<g><path style="opacity:1" fill="#fefffe" d="M 60.5,101.5 C 63.5719,101.183 66.5719,101.516 69.5,102.5C 62.6162,113.146 65.6162,117.98 78.5,117C 82.0268,116.14 84.1934,113.973 85,110.5C 94.4195,125.451 91.9195,137.951 77.5,148C 67.193,150.418 57.193,149.418 47.5,145C 42.163,142.346 39.8296,138.013 40.5,132C 42.5233,118.786 49.19,108.62 60.5,101.5 Z"/></g>
<g><path style="opacity:0.885" fill="#fefffe" d="M 975.5,189.5 C 981.833,189.5 988.167,189.5 994.5,189.5C 994.5,196.167 994.5,202.833 994.5,209.5C 987.986,209.6 981.652,209.6 975.5,209.5C 974.208,202.777 974.208,196.111 975.5,189.5 Z"/></g>
<g><path style="opacity:1" fill="#fec90d" d="M 136.5,269.5 C 121.5,269.5 106.5,269.5 91.5,269.5C 91.7986,261.27 89.9652,253.604 86,246.5C 81.3294,240.997 76.496,235.664 71.5,230.5C 78.2897,228.307 85.2897,226.64 92.5,225.5C 96.0438,220.245 99.7105,215.079 103.5,210C 105.167,210.667 106.833,210.667 108.5,210C 113.88,215.418 118.547,221.418 122.5,228C 128.55,228.721 134.55,229.721 140.5,231C 145.416,232.848 146.583,236.014 144,240.5C 140.167,244.333 136.333,248.167 132.5,252C 134.953,257.541 136.287,263.374 136.5,269.5 Z"/></g>
<g><path style="opacity:1" fill="#fefffe" d="M 96.5,256.5 C 97.675,256.281 98.675,256.614 99.5,257.5C 100.348,259.409 100.682,261.409 100.5,263.5C 96.3219,262.812 94.9886,260.478 96.5,256.5 Z"/></g>
<g><path style="opacity:1" fill="#fefffe" d="M 102.5,259.5 C 105.779,260.031 107.113,262.031 106.5,265.5C 102.262,265.28 100.928,263.28 102.5,259.5 Z"/></g>
</svg>
