<?xml version="1.0" encoding="UTF-8"?>
<!DOCTYPE svg PUBLIC "-//W3C//DTD SVG 1.1//EN" "http://www.w3.org/Graphics/SVG/1.1/DTD/svg11.dtd">
<svg xmlns="http://www.w3.org/2000/svg" version="1.1" width="722px" height="142px" style="shape-rendering:geometricPrecision; text-rendering:geometricPrecision; image-rendering:optimizeQuality; fill-rule:evenodd; clip-rule:evenodd" xmlns:xlink="http://www.w3.org/1999/xlink">
<g><path style="opacity:1" fill="#d5ceb3" d="M 616.5,-0.5 C 619.833,-0.5 623.167,-0.5 626.5,-0.5C 636.443,2.42653 644.109,8.42653 649.5,17.5C 652.687,14.1472 655.687,10.6472 658.5,7C 669.925,-1.52559 681.259,-1.19226 692.5,8C 698.638,15.0493 700.805,23.216 699,32.5C 698.115,42.5933 694.281,51.2599 687.5,58.5C 686.167,59.1667 684.833,59.8333 683.5,60.5C 678.636,61.9 673.636,62.5666 668.5,62.5C 660.624,60.4516 654.624,55.9516 650.5,49C 646.446,48.3064 642.446,48.4731 638.5,49.5C 633.773,49.779 629.107,50.4456 624.5,51.5C 624.326,48.237 622.659,46.5704 619.5,46.5C 619.448,48.9029 619.781,51.2362 620.5,53.5C 617.779,53.9628 615.112,54.6295 612.5,55.5C 597.496,42.7939 594.329,27.4605 603,9.5C 606.579,4.73071 611.079,1.39738 616.5,-0.5 Z"/></g>
<g><path style="opacity:0.798" fill="#0d0507" d="M 85.5,42.5 C 85.176,52.2173 85.676,61.884 87,71.5C 91.245,84.8431 96.0784,97.8431 101.5,110.5C 100.956,113.916 99.6223,116.916 97.5,119.5C 93.3055,121.095 89.4722,120.428 86,117.5C 82.2868,110.369 78.9535,103.036 76,95.5C 74.5226,91.5701 73.3559,87.5701 72.5,83.5C 72.067,80.8344 71.567,78.1677 71,75.5C 64.1053,85.5971 55.9386,93.2638 46.5,98.5C 39.2762,99.7719 32.6095,98.1052 26.5,93.5C 25.2998,89.1799 23.9665,88.8466 22.5,92.5C 23.5318,98.4764 23.6984,104.476 23,110.5C 21.5787,112.405 20.412,114.405 19.5,116.5C 13.2268,118.446 8.72679,116.446 6,110.5C 4.77958,94.2075 2.61292,78.2075 -0.5,62.5C -0.5,56.1667 -0.5,49.8333 -0.5,43.5C 3.64648,38.106 8.64648,37.2726 14.5,41C 15.5822,42.3297 16.2488,43.8297 16.5,45.5C 17.1963,48.5536 18.6963,51.2202 21,53.5C 22.0344,57.654 23.3678,61.654 25,65.5C 26.7038,67.3734 28.5372,69.0401 30.5,70.5C 31.1667,70.5 31.5,70.8333 31.5,71.5C 31.373,74.245 32.5397,76.245 35,77.5C 35.3988,77.2716 35.5654,76.9382 35.5,76.5C 37.5731,79.0368 40.2398,80.2035 43.5,80C 52.8331,72.6507 59.9998,63.484 65,52.5C 66.0494,47.3493 67.8828,42.516 70.5,38C 77.381,33.7996 82.381,35.2996 85.5,42.5 Z"/></g>
<g><path style="opacity:1" fill="#e9b501" d="M 74.5,39.5 C 77.6516,38.9586 80.1516,39.9586 82,42.5C 82.1682,52.5425 82.8349,62.5425 84,72.5C 87.5945,85.0054 92.2612,97.0054 98,108.5C 98.8333,114.333 96.3333,116.833 90.5,116C 88.6411,114.442 87.1411,112.609 86,110.5C 80.3482,97.2123 75.6816,83.5457 72,69.5C 65.4751,80.0249 56.9751,88.5249 46.5,95C 41.6365,95.8085 36.9699,95.1418 32.5,93C 28.6667,89.8333 24.8333,86.6667 21,83.5C 19.5611,81.7254 18.5611,79.7254 18,77.5C 19.6174,88.4065 20.2841,99.4065 20,110.5C 16.6667,114.5 13.3333,114.5 10,110.5C 8.32544,92.3941 5.99211,74.3941 3,56.5C 2.33333,52.8333 2.33333,49.1667 3,45.5C 4.86365,42.7928 7.36365,41.9595 10.5,43C 16.5526,54.3231 22.886,65.4898 29.5,76.5C 32.8198,80.821 37.1532,83.4877 42.5,84.5C 48.3714,81.139 53.5381,76.8056 58,71.5C 64.051,62.4644 68.7177,52.7978 72,42.5C 73.045,41.6266 73.8783,40.6266 74.5,39.5 Z"/></g>
<g><path style="opacity:0.773" fill="#0b0407" d="M 532.5,49.5 C 532.302,57.5341 532.635,65.5341 533.5,73.5C 534.791,73.7373 535.791,73.404 536.5,72.5C 542.077,72.108 545.744,74.4413 547.5,79.5C 547.723,84.0524 546.056,87.7191 542.5,90.5C 542.167,90.5 541.833,90.5 541.5,90.5C 540.5,90.5 539.5,90.5 538.5,90.5C 538.569,93.0842 539.735,95.0842 542,96.5C 542.399,96.2716 542.565,95.9382 542.5,95.5C 543.974,96.4363 544.974,97.7697 545.5,99.5C 545.663,101.857 545.497,104.19 545,106.5C 543.198,107.789 542.031,109.456 541.5,111.5C 537.596,113.021 533.929,112.521 530.5,110C 524.756,106.022 521.423,100.522 520.5,93.5C 509.869,92.5696 506.702,87.2363 511,77.5C 512.803,76.6866 514.303,75.5199 515.5,74C 514.379,65.8697 514.212,57.703 515,49.5C 518.479,42.3494 523.646,40.8494 530.5,45C 531.582,46.3297 532.249,47.8297 532.5,49.5 Z"/></g>
<g><path style="opacity:1" fill="#874f00" d="M 624.5,51.5 C 625.981,56.0117 626.648,60.6784 626.5,65.5C 625.178,65.67 624.011,65.3366 623,64.5C 622.581,60.6083 621.748,56.9416 620.5,53.5C 619.781,51.2362 619.448,48.9029 619.5,46.5C 622.659,46.5704 624.326,48.237 624.5,51.5 Z"/></g>
<g><path style="opacity:1" fill="#e8b401" d="M 521.5,46.5 C 524.652,45.9586 527.152,46.9586 529,49.5C 529.358,58.5155 529.858,67.5155 530.5,76.5C 534.182,76.3347 537.848,76.5014 541.5,77C 545.5,80.3333 545.5,83.6667 541.5,87C 538.833,87.3333 536.167,87.6667 533.5,88C 534.708,93.2189 537.541,97.3856 542,100.5C 542.833,106.333 540.333,108.833 534.5,108C 531.667,105.167 528.833,102.333 526,99.5C 525.025,96.2397 523.858,93.073 522.5,90C 515.701,90.8581 512.534,88.0248 513,81.5C 514.509,79.0807 516.675,78.0807 519.5,78.5C 518.508,68.8523 518.342,59.1857 519,49.5C 520.045,48.6266 520.878,47.6266 521.5,46.5 Z"/></g>
<g><path style="opacity:1" fill="#874f00" d="M 668.5,62.5 C 674.974,86.8566 674.974,111.19 668.5,135.5C 659.639,137.261 650.639,137.928 641.5,137.5C 644.518,131.954 646.351,125.954 647,119.5C 647.667,106.833 647.667,94.1667 647,81.5C 646.346,70.2151 643.513,59.5484 638.5,49.5C 642.446,48.4731 646.446,48.3064 650.5,49C 654.624,55.9516 660.624,60.4516 668.5,62.5 Z"/></g>
<g><path style="opacity:1" fill="#f1ba00" d="M 638.5,49.5 C 643.513,59.5484 646.346,70.2151 647,81.5C 647.667,94.1667 647.667,106.833 647,119.5C 646.351,125.954 644.518,131.954 641.5,137.5C 640.167,137.5 638.833,137.5 637.5,137.5C 636.596,136.791 636.263,135.791 636.5,134.5C 634.62,134.229 633.287,134.896 632.5,136.5C 626.499,134.833 620.499,133.166 614.5,131.5C 614.179,129.952 613.179,129.285 611.5,129.5C 584.979,117.807 578.146,98.8072 591,72.5C 594.062,69.2678 597.229,66.2678 600.5,63.5C 600.933,66.2589 602.6,67.5922 605.5,67.5C 605.552,65.0971 605.219,62.7638 604.5,60.5C 607.167,58.8333 609.833,57.1667 612.5,55.5C 615.112,54.6295 617.779,53.9628 620.5,53.5C 621.748,56.9416 622.581,60.6083 623,64.5C 624.011,65.3366 625.178,65.67 626.5,65.5C 626.648,60.6784 625.981,56.0117 624.5,51.5C 629.107,50.4456 633.773,49.779 638.5,49.5 Z"/></g>
<g><path style="opacity:0.954" fill="#bd34a9" d="M 532.5,49.5 C 534.017,49.5106 535.184,50.1772 536,51.5C 536.5,58.4921 536.666,65.4921 536.5,72.5C 535.791,73.404 534.791,73.7373 533.5,73.5C 532.635,65.5341 532.302,57.5341 532.5,49.5 Z"/></g>
<g><path style="opacity:1" fill="#874f00" d="M 604.5,60.5 C 605.219,62.7638 605.552,65.0971 605.5,67.5C 602.6,67.5922 600.933,66.2589 600.5,63.5C 599.167,59.5 597.833,55.5 596.5,51.5C 597.822,51.33 598.989,51.6634 600,52.5C 601.777,55.0594 603.277,57.7261 604.5,60.5 Z"/></g>
<g><path style="opacity:0.818" fill="#b1309f" d="M 16.5,45.5 C 18.0174,45.5106 19.1841,46.1772 20,47.5C 24.1757,54.8615 27.6757,62.5282 30.5,70.5C 28.5372,69.0401 26.7038,67.3734 25,65.5C 23.3678,61.654 22.0344,57.654 21,53.5C 18.6963,51.2202 17.1963,48.5536 16.5,45.5 Z"/></g>
<g><path style="opacity:1" fill="#884f00" d="M 687.5,58.5 C 690.913,61.7203 694.579,64.7203 698.5,67.5C 700.937,69.408 702.604,71.7413 703.5,74.5C 706.59,88.0314 707.257,101.698 705.5,115.5C 704.139,117.527 702.473,119.194 700.5,120.5C 698.027,120.088 696.694,121.088 696.5,123.5C 693.14,125.18 689.807,126.847 686.5,128.5C 693.562,105.534 692.562,82.867 683.5,60.5C 684.833,59.8333 686.167,59.1667 687.5,58.5 Z"/></g>
<g><path style="opacity:1" fill="#f0bb00" d="M 683.5,60.5 C 692.562,82.867 693.562,105.534 686.5,128.5C 685.833,129.167 685.167,129.833 684.5,130.5C 682.62,130.229 681.287,130.896 680.5,132.5C 676.499,133.5 672.499,134.5 668.5,135.5C 674.974,111.19 674.974,86.8566 668.5,62.5C 673.636,62.5666 678.636,61.9 683.5,60.5 Z"/></g>
<g><path style="opacity:0.774" fill="#0a0404" d="M 502.5,76.5 C 503.143,82.9448 501.476,88.6115 497.5,93.5C 496.027,94.072 494.693,94.9054 493.5,96C 496.68,96.1368 499.68,95.6368 502.5,94.5C 502.833,94.5 503.167,94.5 503.5,94.5C 506.572,95.3013 508.238,97.3013 508.5,100.5C 508.405,107.762 504.738,111.595 497.5,112C 496.269,113.405 494.936,114.571 493.5,115.5C 480.391,118.025 471.224,113.025 466,100.5C 462.43,84.8024 467.93,73.969 482.5,68C 489.196,67.2303 495.363,68.7303 501,72.5C 501.791,73.745 502.291,75.0783 502.5,76.5 Z"/></g>
<g><path style="opacity:0.75" fill="#0a0404" d="M 348.5,82.5 C 348.668,86.19 350.168,89.19 353,91.5C 353.399,91.2716 353.565,90.9382 353.5,90.5C 357.057,92.0042 360.723,93.5042 364.5,95C 365.582,96.3297 366.249,97.8297 366.5,99.5C 366.702,101.989 366.202,104.323 365,106.5C 363.188,108.3 361.355,109.967 359.5,111.5C 352.943,112.87 347.276,111.203 342.5,106.5C 342.205,104.577 341.372,102.91 340,101.5C 335.587,105.511 331.42,108.844 327.5,111.5C 317.02,113.092 309.353,109.092 304.5,99.5C 304.569,94.1463 304.902,88.813 305.5,83.5C 307.975,75.1927 313.475,70.1927 322,68.5C 330.376,71.2767 338.542,74.4434 346.5,78C 347.582,79.3297 348.249,80.8297 348.5,82.5 Z"/></g>
<g><path style="opacity:0.763" fill="#0b0406" d="M 457.5,81.5 C 459.438,89.3768 459.938,97.3768 459,105.5C 458.128,108.856 456.628,111.856 454.5,114.5C 446.87,116.519 442.203,113.686 440.5,106C 441.358,101.205 441.691,96.3719 441.5,91.5C 441.5,90.5 441.5,89.5 441.5,88.5C 439.533,88.2606 437.699,88.5939 436,89.5C 435.667,94.8333 435.333,100.167 435,105.5C 433.579,107.405 432.412,109.405 431.5,111.5C 425.227,113.446 420.727,111.446 418,105.5C 414.853,95.4197 414.853,85.4197 418,75.5C 426.628,71.124 435.795,69.624 445.5,71C 450.956,72.9635 454.956,76.4635 457.5,81.5 Z"/></g>
<g><path style="opacity:0.771" fill="#0c0506" d="M 175.5,78.5 C 176.049,84.6463 177.883,90.313 181,95.5C 181.495,93.5273 181.662,91.5273 181.5,89.5C 181.188,77.5037 186.522,73.6703 197.5,78C 198.386,79.6147 199.386,81.1147 200.5,82.5C 199.957,82.56 199.624,82.8933 199.5,83.5C 202.078,85.5738 203.578,88.2405 204,91.5C 205.076,94.079 206.909,95.7457 209.5,96.5C 210.268,95.7375 210.768,94.7375 211,93.5C 211.333,88.5 211.667,83.5 212,78.5C 215.768,71.0785 221.101,69.7452 228,74.5C 228.791,75.745 229.291,77.0783 229.5,78.5C 229.762,86.2205 229.262,93.8872 228,101.5C 224.627,106.691 220.794,111.358 216.5,115.5C 209.524,116.512 203.191,114.845 197.5,110.5C 197.315,108.804 196.481,107.471 195,106.5C 191.938,109.732 188.771,112.732 185.5,115.5C 178.363,116.689 172.53,114.356 168,108.5C 161.458,99.5393 158.124,89.5393 158,78.5C 161.479,71.3494 166.646,69.8494 173.5,74C 174.582,75.3297 175.249,76.8297 175.5,78.5 Z"/></g>
<g><path style="opacity:0.788" fill="#ab2f99" d="M 31.5,71.5 C 33.5869,72.5846 34.9202,74.2512 35.5,76.5C 35.5654,76.9382 35.3988,77.2716 35,77.5C 32.5397,76.245 31.373,74.245 31.5,71.5 Z"/></g>
<g><path style="opacity:0.745" fill="#0a0405" d="M 147.5,84.5 C 146.957,84.56 146.624,84.8933 146.5,85.5C 147.48,86.9814 148.647,88.3147 150,89.5C 150.93,96.0042 150.264,102.338 148,108.5C 144.267,111.745 140.434,114.745 136.5,117.5C 120.482,119.549 110.649,112.549 107,96.5C 106.06,85.8769 110.227,78.0436 119.5,73C 131.073,71.6264 140.406,75.4598 147.5,84.5 Z M 129.5,93.5 C 130.496,93.4142 131.329,93.7476 132,94.5C 132.494,96.1341 132.66,97.8008 132.5,99.5C 131.5,99.5 130.5,99.5 129.5,99.5C 128.725,97.3881 128.725,95.3881 129.5,93.5 Z"/></g>
<g><path style="opacity:0.778" fill="#0d0607" d="M 252.5,79.5 C 252.339,84.874 254.005,89.5406 257.5,93.5C 258.386,92.675 258.719,91.675 258.5,90.5C 258.716,85.0068 260.05,79.8401 262.5,75C 269.381,70.7996 274.381,72.2996 277.5,79.5C 278.84,83.3709 279.673,87.3709 280,91.5C 280.853,93.1247 281.853,93.4581 283,92.5C 283.175,89.8428 283.008,87.1761 282.5,84.5C 285.271,75.448 290.938,72.948 299.5,77C 300.582,78.3297 301.249,79.8297 301.5,81.5C 301.169,88.6438 300.003,95.6438 298,102.5C 294.941,107.34 291.441,111.673 287.5,115.5C 282.092,116.815 277.092,115.815 272.5,112.5C 272.884,110.335 272.217,108.668 270.5,107.5C 267.07,110.263 264.07,113.263 261.5,116.5C 255.97,118.001 251.137,116.667 247,112.5C 242.198,104.563 238.198,96.2295 235,87.5C 233.573,74.8182 238.74,70.6515 250.5,75C 251.582,76.3297 252.249,77.8297 252.5,79.5 Z"/></g>
<g><path style="opacity:1" fill="#e9b401" d="M 482.5,71.5 C 500.856,71.304 504.523,78.4707 493.5,93C 489.89,94.944 486.557,97.2774 483.5,100C 484.6,101.023 485.933,101.523 487.5,101.5C 491.516,99.8843 495.683,98.551 500,97.5C 504.536,98.37 506.203,101.037 505,105.5C 501.405,108.037 497.572,110.203 493.5,112C 482.569,114.385 474.735,110.552 470,100.5C 466.283,87.1509 470.45,77.4842 482.5,71.5 Z"/></g>
<g><path style="opacity:1" fill="#e8b401" d="M 319.5,72.5 C 326.554,72.5703 332.387,75.237 337,80.5C 340.206,78.8756 342.872,79.5422 345,82.5C 345.822,84.7885 346.489,87.1218 347,89.5C 349.35,91.6829 351.517,94.0163 353.5,96.5C 355.672,96.6759 358.005,96.8425 360.5,97C 365.077,102.104 364.077,105.77 357.5,108C 353.403,108.635 349.736,107.635 346.5,105C 344.607,102.697 342.607,100.53 340.5,98.5C 336.307,101.86 331.974,105.027 327.5,108C 311.948,108.436 305.782,100.936 309,85.5C 310.534,79.477 314.034,75.1436 319.5,72.5 Z"/></g>
<g><path style="opacity:1" fill="#f0bb00" d="M 703.5,74.5 C 706.258,77.678 708.258,81.3447 709.5,85.5C 711.111,89.99 711.778,94.6566 711.5,99.5C 711.921,105.869 709.921,111.203 705.5,115.5C 707.257,101.698 706.59,88.0314 703.5,74.5 Z"/></g>
<g><path style="opacity:1" fill="#e9b401" d="M 431.5,74.5 C 448.181,72.6792 456.514,80.1792 456.5,97C 457.263,102.37 455.93,107.037 452.5,111C 449.364,112.041 446.864,111.207 445,108.5C 445.406,102.528 445.406,96.528 445,90.5C 444.727,88.6711 443.893,87.1711 442.5,86C 438.719,84.9021 435.553,85.7354 433,88.5C 432.667,94.1667 432.333,99.8333 432,105.5C 428.667,109.5 425.333,109.5 422,105.5C 419.694,96.9729 419.028,88.3062 420,79.5C 422.128,76.5422 424.794,75.8756 428,77.5C 429.518,76.8366 430.685,75.8366 431.5,74.5 Z"/></g>
<g><path style="opacity:1" fill="#e8b400" d="M 164.5,75.5 C 167.652,74.9586 170.152,75.9586 172,78.5C 172.719,83.6582 174.052,88.6582 176,93.5C 177.362,96.2356 179.196,98.5689 181.5,100.5C 182.799,99.91 183.632,98.91 184,97.5C 184.886,92.5298 185.552,87.5298 186,82.5C 189.333,78.5 192.667,78.5 196,82.5C 198.95,88.3452 202.45,93.8452 206.5,99C 212.123,101.728 214.957,99.895 215,93.5C 215.333,88.5 215.667,83.5 216,78.5C 219.333,74.5 222.667,74.5 226,78.5C 226.762,86.2146 226.429,93.8812 225,101.5C 222.167,105.667 218.667,109.167 214.5,112C 210.684,112.401 207.017,111.734 203.5,110C 200.354,107.688 197.354,105.188 194.5,102.5C 192.044,105.458 189.378,108.291 186.5,111C 183.923,112.25 181.257,112.584 178.5,112C 166.9,103.882 161.4,92.7153 162,78.5C 163.045,77.6266 163.878,76.6266 164.5,75.5 Z"/></g>
<g><path style="opacity:1" fill="#e9b401" d="M 119.5,76.5 C 131.557,75.5697 140.723,80.2364 147,90.5C 148.862,109.13 140.695,116.63 122.5,113C 113.686,107.245 109.852,99.0782 111,88.5C 112.858,83.809 115.691,79.809 119.5,76.5 Z M 129.5,93.5 C 130.496,93.4142 131.329,93.7476 132,94.5C 132.494,96.1341 132.66,97.8008 132.5,99.5C 131.5,99.5 130.5,99.5 129.5,99.5C 128.725,97.3881 128.725,95.3881 129.5,93.5 Z"/></g>
<g><path style="opacity:1" fill="#e8b401" d="M 241.5,76.5 C 244.652,75.9586 247.152,76.9586 249,79.5C 250.214,87.1947 253.048,94.1947 257.5,100.5C 258.799,99.91 259.632,98.91 260,97.5C 262.575,91.7744 263.909,85.7744 264,79.5C 267.333,75.5 270.667,75.5 274,79.5C 275.616,83.3466 276.616,87.3466 277,91.5C 278.386,94.5337 280.219,97.2004 282.5,99.5C 284.422,97.9969 285.588,95.9969 286,93.5C 286.231,89.4159 286.898,85.4159 288,81.5C 292.814,76.9954 296.314,77.8288 298.5,84C 298.945,95.7088 294.612,105.042 285.5,112C 282.743,112.584 280.077,112.25 277.5,111C 275.353,107.885 272.853,105.052 270,102.5C 267.167,106.667 263.667,110.167 259.5,113C 255.266,113.481 251.766,111.981 249,108.5C 244.391,100.618 240.891,92.2848 238.5,83.5C 238.667,82.1667 238.833,80.8333 239,79.5C 240.045,78.6266 240.878,77.6266 241.5,76.5 Z"/></g>
<g><path style="opacity:0.944" fill="#bc34a8" d="M 502.5,76.5 C 505.94,77.4486 507.274,79.7819 506.5,83.5C 506.497,87.5004 505.497,91.1671 503.5,94.5C 503.167,94.5 502.833,94.5 502.5,94.5C 500.585,94.7845 498.919,94.4511 497.5,93.5C 501.476,88.6115 503.143,82.9448 502.5,76.5 Z"/></g>
<g><path style="opacity:0.913" fill="#b431a1" d="M 72.5,83.5 C 67.6692,88.1629 62.6692,92.6629 57.5,97C 53.9399,98.2367 50.2733,98.7367 46.5,98.5C 55.9386,93.2638 64.1053,85.5971 71,75.5C 71.567,78.1677 72.067,80.8344 72.5,83.5 Z"/></g>
<g><path style="opacity:0.894" fill="#ba33a6" d="M 252.5,79.5 C 254.017,79.5106 255.184,80.1772 256,81.5C 256.204,84.7974 257.037,87.7974 258.5,90.5C 258.719,91.675 258.386,92.675 257.5,93.5C 254.005,89.5406 252.339,84.874 252.5,79.5 Z"/></g>
<g><path style="opacity:0.892" fill="#bc34a7" d="M 547.5,79.5 C 549.017,79.5106 550.184,80.1772 551,81.5C 552.833,88.8343 550,91.8343 542.5,90.5C 546.056,87.7191 547.723,84.0524 547.5,79.5 Z"/></g>
<g><path style="opacity:1" fill="#ba33a7" d="M 175.5,78.5 C 177.017,78.5106 178.184,79.1772 179,80.5C 179.204,83.7974 180.037,86.7974 181.5,89.5C 181.662,91.5273 181.495,93.5273 181,95.5C 177.883,90.313 176.049,84.6463 175.5,78.5 Z"/></g>
<g><path style="opacity:0.937" fill="#bb33a7" d="M 301.5,81.5 C 303.062,81.7329 304.395,82.3995 305.5,83.5C 304.902,88.813 304.569,94.1463 304.5,99.5C 302.451,105.748 298.784,110.914 293.5,115C 291.527,115.495 289.527,115.662 287.5,115.5C 291.441,111.673 294.941,107.34 298,102.5C 300.003,95.6438 301.169,88.6438 301.5,81.5 Z"/></g>
<g><path style="opacity:1" fill="#1b1501" d="M 484.5,82.5 C 485.675,82.281 486.675,82.6143 487.5,83.5C 485.424,85.2877 483.257,86.9544 481,88.5C 481.357,86.1304 482.524,84.1304 484.5,82.5 Z"/></g>
<g><path style="opacity:0.812" fill="#b632a3" d="M 348.5,82.5 C 351.983,83.8635 353.65,86.5301 353.5,90.5C 353.565,90.9382 353.399,91.2716 353,91.5C 350.168,89.19 348.668,86.19 348.5,82.5 Z"/></g>
<g><path style="opacity:0.992" fill="#120908" d="M 321.5,83.5 C 333.915,87.2608 334.415,91.9275 323,97.5C 322.127,97.2645 321.293,96.9312 320.5,96.5C 319.147,92.0139 319.481,87.6806 321.5,83.5 Z"/></g>
<g><path style="opacity:1" fill="#874f00" d="M 598.5,84.5 C 601.697,85.1124 603.031,87.1124 602.5,90.5C 597.211,90.5975 595.878,88.5975 598.5,84.5 Z"/></g>
<g><path style="opacity:0.984" fill="#b732a4" d="M 277.5,79.5 C 280.2,80.1998 281.867,81.8664 282.5,84.5C 283.008,87.1761 283.175,89.8428 283,92.5C 281.853,93.4581 280.853,93.1247 280,91.5C 279.673,87.3709 278.84,83.3709 277.5,79.5 Z"/></g>
<g><path style="opacity:1" fill="#d5cfb3" d="M 709.5,85.5 C 713.5,87.1667 717.5,88.8333 721.5,90.5C 721.5,91.8333 721.5,93.1667 721.5,94.5C 717.926,95.7951 714.593,97.4618 711.5,99.5C 711.778,94.6566 711.111,89.99 709.5,85.5 Z"/></g>
<g><path style="opacity:0.885" fill="#0d0605" d="M 123.5,87.5 C 128.448,87.8717 132.615,89.8717 136,93.5C 136.667,103.833 132.667,106.167 124,100.5C 121.303,96.1379 121.136,91.8045 123.5,87.5 Z M 129.5,93.5 C 130.496,93.4142 131.329,93.7476 132,94.5C 132.494,96.1341 132.66,97.8008 132.5,99.5C 131.5,99.5 130.5,99.5 129.5,99.5C 128.725,97.3881 128.725,95.3881 129.5,93.5 Z"/></g>
<g><path style="opacity:1" fill="#874f00" d="M 628.5,87.5 C 633.028,87.8411 634.361,90.0078 632.5,94C 629.186,95.1647 627.186,93.9981 626.5,90.5C 627.193,89.4822 627.859,88.4822 628.5,87.5 Z"/></g>
<g><path style="opacity:1" fill="#aa2f98" d="M 322.5,87.5 C 328.688,88.9295 328.855,91.2628 323,94.5C 322.503,92.1902 322.337,89.8568 322.5,87.5 Z"/></g>
<g><path style="opacity:0.953" fill="#bd34a9" d="M 457.5,81.5 C 460.706,83.564 462.539,86.564 463,90.5C 463.667,96.8333 463.667,103.167 463,109.5C 461.937,113.955 459.104,115.621 454.5,114.5C 456.628,111.856 458.128,108.856 459,105.5C 459.938,97.3768 459.438,89.3768 457.5,81.5 Z"/></g>
<g><path style="opacity:0.943" fill="#bb33a7" d="M 441.5,91.5 C 440.883,91.6107 440.383,91.944 440,92.5C 439.667,98.1667 439.333,103.833 439,109.5C 436.865,111.278 434.365,111.945 431.5,111.5C 432.412,109.405 433.579,107.405 435,105.5C 435.333,100.167 435.667,94.8333 436,89.5C 437.699,88.5939 439.533,88.2606 441.5,88.5C 441.5,89.5 441.5,90.5 441.5,91.5 Z"/></g>
<g><path style="opacity:0.956" fill="#bb33a7" d="M 26.5,93.5 C 27.4568,100.477 27.6234,107.477 27,114.5C 24.8646,116.278 22.3646,116.945 19.5,116.5C 20.412,114.405 21.5787,112.405 23,110.5C 23.6984,104.476 23.5318,98.4764 22.5,92.5C 23.9665,88.8466 25.2998,89.1799 26.5,93.5 Z"/></g>
<g><path style="opacity:0.932" fill="#ba33a6" d="M 147.5,84.5 C 154.169,89.9134 156.335,96.9134 154,105.5C 151.324,113.997 145.491,117.997 136.5,117.5C 140.434,114.745 144.267,111.745 148,108.5C 150.264,102.338 150.93,96.0042 150,89.5C 148.647,88.3147 147.48,86.9814 146.5,85.5C 146.624,84.8933 146.957,84.56 147.5,84.5 Z"/></g>
<g><path style="opacity:0.791" fill="#ac2e9a" d="M 200.5,82.5 C 204.496,86.4836 207.496,91.1503 209.5,96.5C 206.909,95.7457 205.076,94.079 204,91.5C 203.578,88.2405 202.078,85.5738 199.5,83.5C 199.624,82.8933 199.957,82.56 200.5,82.5 Z"/></g>
<g><path style="opacity:1" fill="#ac2f9b" d="M 541.5,90.5 C 541.629,92.2161 541.962,93.8828 542.5,95.5C 542.565,95.9382 542.399,96.2716 542,96.5C 539.735,95.0842 538.569,93.0842 538.5,90.5C 539.5,90.5 540.5,90.5 541.5,90.5 Z"/></g>
<g><path style="opacity:1" fill="#874f00" d="M 606.5,93.5 C 608.973,93.7991 611.14,94.7991 613,96.5C 615.437,95.1999 617.937,94.1999 620.5,93.5C 620.556,98.1107 618.223,100.444 613.5,100.5C 608.548,100.222 606.215,97.8888 606.5,93.5 Z"/></g>
<g><path style="opacity:0.926" fill="#bb33a7" d="M 229.5,78.5 C 231.017,78.5106 232.184,79.1772 233,80.5C 233.787,88.8805 233.454,97.2139 232,105.5C 228.728,111.966 223.561,115.299 216.5,115.5C 220.794,111.358 224.627,106.691 228,101.5C 229.262,93.8872 229.762,86.2205 229.5,78.5 Z"/></g>
<g><path style="opacity:1" fill="#4a1542" d="M 497.5,93.5 C 498.919,94.4511 500.585,94.7845 502.5,94.5C 499.68,95.6368 496.68,96.1368 493.5,96C 494.693,94.9054 496.027,94.072 497.5,93.5 Z"/></g>
<g><path style="opacity:0.705" fill="#080304" d="M 391.5,103.5 C 391.66,105.199 391.494,106.866 391,108.5C 389.579,110.405 388.412,112.405 387.5,114.5C 378.204,116.611 373.704,112.944 374,103.5C 377.479,96.3494 382.646,94.8494 389.5,99C 390.582,100.33 391.249,101.83 391.5,103.5 Z"/></g>
<g><path style="opacity:1" fill="#b0309e" d="M 129.5,93.5 C 128.725,95.3881 128.725,97.3881 129.5,99.5C 128.207,100.645 127.041,100.311 126,98.5C 125.178,95.8832 124.678,93.2165 124.5,90.5C 127.034,90.2591 128.7,91.2591 129.5,93.5 Z"/></g>
<g><path style="opacity:0.894" fill="#bc33a8" d="M 366.5,99.5 C 368.017,99.5106 369.184,100.177 370,101.5C 371.398,109.594 367.898,112.928 359.5,111.5C 361.355,109.967 363.188,108.3 365,106.5C 366.202,104.323 366.702,101.989 366.5,99.5 Z"/></g>
<g><path style="opacity:1" fill="#ddab01" d="M 380.5,100.5 C 388.818,100.987 390.485,104.487 385.5,111C 377.088,110.812 375.421,107.312 380.5,100.5 Z"/></g>
<g><path style="opacity:0.894" fill="#b933a6" d="M 508.5,100.5 C 510.017,100.511 511.184,101.177 512,102.5C 512.667,104.833 512.667,107.167 512,109.5C 506.293,113.113 500.126,115.113 493.5,115.5C 494.936,114.571 496.269,113.405 497.5,112C 504.738,111.595 508.405,107.762 508.5,100.5 Z"/></g>
<g><path style="opacity:0.888" fill="#bd34a8" d="M 545.5,99.5 C 549.925,102.634 550.592,106.467 547.5,111C 545.527,111.495 543.527,111.662 541.5,111.5C 542.031,109.456 543.198,107.789 545,106.5C 545.497,104.19 545.663,101.857 545.5,99.5 Z"/></g>
<g><path style="opacity:0.903" fill="#b3319f" d="M 342.5,106.5 C 340.05,107.777 337.717,109.277 335.5,111C 332.854,111.497 330.187,111.664 327.5,111.5C 331.42,108.844 335.587,105.511 340,101.5C 341.372,102.91 342.205,104.577 342.5,106.5 Z"/></g>
<g><path style="opacity:0.888" fill="#bc34a7" d="M 391.5,103.5 C 393.017,103.511 394.184,104.177 395,105.5C 397.003,112.327 394.503,115.327 387.5,114.5C 388.412,112.405 389.579,110.405 391,108.5C 391.494,106.866 391.66,105.199 391.5,103.5 Z"/></g>
<g><path style="opacity:0.927" fill="#b532a2" d="M 197.5,110.5 C 194.588,114.479 190.588,116.145 185.5,115.5C 188.771,112.732 191.938,109.732 195,106.5C 196.481,107.471 197.315,108.804 197.5,110.5 Z"/></g>
<g><path style="opacity:0.888" fill="#bc34a8" d="M 85.5,42.5 C 87.0174,42.5106 88.1841,43.1772 89,44.5C 89.1682,54.5425 89.8349,64.5425 91,74.5C 94.5945,87.0054 99.2612,99.0054 105,110.5C 107.003,117.327 104.503,120.327 97.5,119.5C 99.6223,116.916 100.956,113.916 101.5,110.5C 96.0784,97.8431 91.245,84.8431 87,71.5C 85.676,61.884 85.176,52.2173 85.5,42.5 Z"/></g>
<g><path style="opacity:0.89" fill="#b632a2" d="M 272.5,112.5 C 269.572,115.738 265.906,117.071 261.5,116.5C 264.07,113.263 267.07,110.263 270.5,107.5C 272.217,108.668 272.884,110.335 272.5,112.5 Z"/></g>
<g><path style="opacity:1" fill="#5a3400" d="M 700.5,120.5 C 701.933,122.558 702.6,124.892 702.5,127.5C 699.682,127.343 697.682,126.009 696.5,123.5C 696.694,121.088 698.027,120.088 700.5,120.5 Z"/></g>
<g><path style="opacity:1" fill="#5a3400" d="M 611.5,129.5 C 613.179,129.285 614.179,129.952 614.5,131.5C 614.826,134.757 613.493,136.257 610.5,136C 609.818,133.812 610.152,131.645 611.5,129.5 Z"/></g>
<g><path style="opacity:1" fill="#5a3400" d="M 684.5,130.5 C 684.5,132.5 684.5,134.5 684.5,136.5C 681.5,136.833 680.167,135.5 680.5,132.5C 681.287,130.896 682.62,130.229 684.5,130.5 Z"/></g>
<g><path style="opacity:1" fill="#5a3400" d="M 637.5,137.5 C 637.5,138.833 637.5,140.167 637.5,141.5C 636.5,141.5 635.5,141.5 634.5,141.5C 633.058,140.18 632.392,138.514 632.5,136.5C 633.287,134.896 634.62,134.229 636.5,134.5C 636.263,135.791 636.596,136.791 637.5,137.5 Z"/></g>
</svg>
