<?xml version="1.0" encoding="UTF-8"?>
<!DOCTYPE svg PUBLIC "-//W3C//DTD SVG 1.1//EN" "http://www.w3.org/Graphics/SVG/1.1/DTD/svg11.dtd">
<svg xmlns="http://www.w3.org/2000/svg" version="1.1" width="1313px" height="270px" style="shape-rendering:geometricPrecision; text-rendering:geometricPrecision; image-rendering:optimizeQuality; fill-rule:evenodd; clip-rule:evenodd" xmlns:xlink="http://www.w3.org/1999/xlink">
<g><path style="opacity:1" fill="#fffefe" d="M 107.5,-0.5 C 109.5,-0.5 111.5,-0.5 113.5,-0.5C 125.429,9.93659 136.262,21.6033 146,34.5C 150.918,42.0001 155.584,49.6667 160,57.5C 162.399,63.3634 164.399,69.3634 166,75.5C 175.253,82.0824 183.92,89.4157 192,97.5C 198.377,106.257 203.711,115.59 208,125.5C 213.308,141.729 210.808,156.563 200.5,170C 199.167,170.667 197.833,170.667 196.5,170C 185.821,162.662 173.988,158.495 161,157.5C 149.4,161.237 142.9,168.903 141.5,180.5C 137.079,182.792 132.912,185.459 129,188.5C 128.5,187.333 127.667,186.5 126.5,186C 120.399,183.019 114.065,180.519 107.5,178.5C 106.522,178.977 105.689,179.643 105,180.5C 104.621,188.596 105.787,196.429 108.5,204C 114.206,203.472 118.873,200.805 122.5,196C 124.39,194.888 126.39,194.054 128.5,193.5C 132.984,194.716 137.318,196.216 141.5,198C 145.141,204.561 148.975,211.061 153,217.5C 157.202,221.367 161.035,225.533 164.5,230C 166.403,230.774 168.07,230.44 169.5,229C 162.926,223.096 157.092,216.596 152,209.5C 145.92,196.916 144.92,183.916 149,170.5C 149.333,170.167 149.667,169.833 150,169.5C 151.167,171.333 152.333,173.167 153.5,175C 154.793,175.49 156.127,175.657 157.5,175.5C 156.992,172.148 155.658,169.148 153.5,166.5C 158.416,160.22 163.083,160.553 167.5,167.5C 169.62,166.597 169.954,165.263 168.5,163.5C 179.517,164.238 189.184,168.404 197.5,176C 205.433,185.035 210.266,195.535 212,207.5C 215.399,230.727 209.899,251.394 195.5,269.5C 175.833,269.5 156.167,269.5 136.5,269.5C 136.287,263.374 134.953,257.541 132.5,252C 136.333,248.167 140.167,244.333 144,240.5C 146.583,236.014 145.416,232.848 140.5,231C 134.55,229.721 128.55,228.721 122.5,228C 118.547,221.418 113.88,215.418 108.5,210C 106.833,210.667 105.167,210.667 103.5,210C 99.7105,215.079 96.0438,220.245 92.5,225.5C 85.2897,226.64 78.2897,228.307 71.5,230.5C 65.7994,227.646 60.4661,224.146 55.5,220C 53.8659,219.506 52.1992,219.34 50.5,219.5C 50.33,220.822 50.6634,221.989 51.5,223C 63.089,228.585 72.9223,236.418 81,246.5C 82.6398,248.579 83.8064,250.912 84.5,253.5C 82.6649,254.192 80.8316,253.858 79,252.5C 76.1738,253.917 76.0072,255.417 78.5,257C 81.1168,257.822 83.7835,258.322 86.5,258.5C 86.5,259.833 86.5,261.167 86.5,262.5C 84.5,262.5 82.5,262.5 80.5,262.5C 80.33,263.822 80.6634,264.989 81.5,266C 83.4727,266.495 85.4727,266.662 87.5,266.5C 87.5,267.5 87.5,268.5 87.5,269.5C 62.8333,269.5 38.1667,269.5 13.5,269.5C 7.29239,264.294 2.62572,257.96 -0.5,250.5C -0.5,244.5 -0.5,238.5 -0.5,232.5C 1.92519,223.978 5.75852,215.978 11,208.5C 17.5835,201.579 24.4168,195.079 31.5,189C 0.775283,170.009 -7.72472,143.509 6,109.5C 11.4326,98.9632 18.0993,89.2965 26,80.5C 32.465,56.7362 43.2983,35.2362 58.5,16C 59.8989,15.4054 61.2322,15.5721 62.5,16.5C 74.7949,30.0874 84.2949,45.4208 91,62.5C 94.8062,40.9384 100.306,19.9384 107.5,-0.5 Z M 136.5,90.5 C 149.098,91.0487 159.598,96.0487 168,105.5C 172.078,109.984 175.411,114.984 178,120.5C 180.806,133.387 176.306,142.553 164.5,148C 143.59,151.043 129.09,142.876 121,123.5C 117.963,108.44 123.129,97.4401 136.5,90.5 Z M 59.5,97.5 C 86.4457,97.7571 97.6124,111.09 93,137.5C 83.4914,153.266 69.9914,157.766 52.5,151C 39.0581,147.554 33.8914,139.054 37,125.5C 41.3631,113.638 48.8631,104.304 59.5,97.5 Z M 126.5,153.5 C 130.409,152.737 131.742,154.07 130.5,157.5C 125.094,159.435 123.761,158.101 126.5,153.5 Z M 136.5,167.5 C 141.384,167.896 141.718,169.396 137.5,172C 133.931,174.523 129.931,175.856 125.5,176C 117.337,177.05 109.337,176.383 101.5,174C 100.663,172.989 100.33,171.822 100.5,170.5C 111.542,173.289 122.542,173.123 133.5,170C 134.571,169.148 135.571,168.315 136.5,167.5 Z M 43.5,189.5 C 51.6047,191.878 59.938,193.045 68.5,193C 69.9733,193.71 70.6399,194.876 70.5,196.5C 62.7795,196.762 55.1128,196.262 47.5,195C 45.221,194.527 43.221,193.527 41.5,192C 42.3805,191.292 43.0472,190.458 43.5,189.5 Z M 73.5,192.5 C 76.8606,193.203 77.1939,194.537 74.5,196.5C 72.3576,195.563 72.0243,194.23 73.5,192.5 Z"/></g>
<g><path style="opacity:1" fill="#fefffe" d="M 137.5,94.5 C 149.581,95.4607 159.414,100.794 167,110.5C 174.884,118.324 176.551,127.324 172,137.5C 168.25,142.542 163.25,144.875 157,144.5C 141.367,144.353 130.7,137.019 125,122.5C 124.211,116.763 124.544,111.097 126,105.5C 127.416,112.75 131.582,115.083 138.5,112.5C 140.029,110.293 140.695,107.793 140.5,105C 141.222,100.972 139.889,97.9716 136.5,96C 137.056,95.6174 137.389,95.1174 137.5,94.5 Z"/></g>
<g><path style="opacity:0.925" fill="#fefffe" d="M 1312.5,130.5 C 1312.5,136.833 1312.5,143.167 1312.5,149.5C 1306.57,149.808 1300.74,149.475 1295,148.5C 1294.83,162.5 1294.67,176.5 1294.5,190.5C 1294.38,206.537 1294.88,222.537 1296,238.5C 1299.12,245.61 1304.62,248.944 1312.5,248.5C 1312.5,254.833 1312.5,261.167 1312.5,267.5C 1291.6,269.438 1279.1,260.104 1275,239.5C 1274.83,209.161 1274.33,178.828 1273.5,148.5C 1270.17,149.833 1266.83,149.833 1263.5,148.5C 1262.17,142.833 1262.17,137.167 1263.5,131.5C 1267.03,130.197 1270.53,130.197 1274,131.5C 1274.33,119.833 1274.67,108.167 1275,96.5C 1278.08,95.854 1281.25,95.5207 1284.5,95.5C 1287.94,95.5536 1291.11,96.2203 1294,97.5C 1294.5,108.495 1294.67,119.495 1294.5,130.5C 1300.5,130.5 1306.5,130.5 1312.5,130.5 Z"/></g>
<g><path style="opacity:1" fill="#fefffe" d="M 60.5,101.5 C 63.5719,101.183 66.5719,101.516 69.5,102.5C 62.6162,113.146 65.6162,117.98 78.5,117C 82.0268,116.14 84.1934,113.973 85,110.5C 94.4195,125.451 91.9195,137.951 77.5,148C 67.193,150.418 57.193,149.418 47.5,145C 42.163,142.346 39.8296,138.013 40.5,132C 42.5233,118.786 49.19,108.62 60.5,101.5 Z"/></g>
<g><path style="opacity:0.921" fill="#fefffe" d="M 288.5,129.5 C 306.642,126.403 319.642,133.07 327.5,149.5C 334.019,140.149 342.686,133.649 353.5,130C 373.219,126.44 386.719,133.94 394,152.5C 395.416,157.415 396.416,162.415 397,167.5C 397.667,200.5 397.667,233.5 397,266.5C 390.333,267.833 383.667,267.833 377,266.5C 376.667,232.833 376.333,199.167 376,165.5C 369.354,146.681 358.354,143.681 343,156.5C 337.609,162.568 333.942,169.568 332,177.5C 331.5,207.498 331.333,237.498 331.5,267.5C 324.91,267.811 318.41,267.478 312,266.5C 311.667,233.5 311.333,200.5 311,167.5C 306.435,148.632 295.935,144.298 279.5,154.5C 274.069,160.359 269.902,167.025 267,174.5C 266.5,205.498 266.333,236.498 266.5,267.5C 259.833,267.5 253.167,267.5 246.5,267.5C 246.333,222.165 246.5,176.832 247,131.5C 253.136,130.183 259.303,130.183 265.5,131.5C 266.327,135.459 266.827,139.459 267,143.5C 273.19,137.166 280.357,132.5 288.5,129.5 Z"/></g>
<g><path style="opacity:0.924" fill="#fefffe" d="M 478.5,269.5 C 472.167,269.5 465.833,269.5 459.5,269.5C 445.948,265.128 436.115,256.461 430,243.5C 421.202,217.219 420.202,190.552 427,163.5C 438.485,131.51 459.985,122.01 491.5,135C 501.984,143.456 508.818,154.289 512,167.5C 517.896,194.047 516.229,220.047 507,245.5C 500.678,257.326 491.178,265.326 478.5,269.5 Z M 464.5,147.5 C 478.5,146.586 487.333,152.92 491,166.5C 492.416,171.415 493.416,176.415 494,181.5C 494.667,193.5 494.667,205.5 494,217.5C 493.73,229.677 489.23,239.844 480.5,248C 468.925,253.697 459.092,251.53 451,241.5C 447.115,233.296 444.782,224.63 444,215.5C 442.423,197.903 443.756,180.57 448,163.5C 450.812,155.185 456.312,149.851 464.5,147.5 Z"/></g>
<g><path style="opacity:0.923" fill="#fefffe" d="M 951.5,269.5 C 950.833,269.5 950.167,269.5 949.5,269.5C 945.999,268.2 942.333,267.034 938.5,266C 934.938,262.942 931.938,259.442 929.5,255.5C 923.17,262.492 915.503,267.159 906.5,269.5C 899.833,269.5 893.167,269.5 886.5,269.5C 860.068,260.126 849.902,241.459 856,213.5C 859.347,201.974 866.18,193.141 876.5,187C 892.033,179.881 908.367,176.381 925.5,176.5C 923.288,152.492 910.288,143.326 886.5,149C 882.393,150.945 878.226,151.779 874,151.5C 872.6,147.135 871.1,142.801 869.5,138.5C 869.529,136.971 870.196,135.804 871.5,135C 887.975,128.602 904.642,127.936 921.5,133C 933.691,139.198 941.191,149.031 944,162.5C 944.107,189.188 944.773,215.855 946,242.5C 946.976,248.47 950.476,250.97 956.5,250C 957,250.5 957.5,251 958,251.5C 958.667,256.833 958.667,262.167 958,267.5C 955.723,268.117 953.556,268.784 951.5,269.5 Z M 914.5,195.5 C 918.182,195.335 921.848,195.501 925.5,196C 924.167,205 924.167,214 925.5,223C 924.351,242.482 914.018,251.815 894.5,251C 884.22,249.387 877.72,243.553 875,233.5C 872.407,219.522 877.24,209.022 889.5,202C 897.754,198.99 906.087,196.824 914.5,195.5 Z"/></g>
<g><path style="opacity:0.917" fill="#fefffe" d="M 1079.5,129.5 C 1108.62,126.459 1124.79,139.459 1128,168.5C 1128.5,201.498 1128.67,234.498 1128.5,267.5C 1121.58,267.812 1114.74,267.479 1108,266.5C 1107.67,233.167 1107.33,199.833 1107,166.5C 1104.75,155.578 1098.08,149.578 1087,148.5C 1073.26,150.899 1063.59,158.566 1058,171.5C 1056.69,203.106 1056.02,234.773 1056,266.5C 1049.59,267.478 1043.09,267.811 1036.5,267.5C 1036.33,222.165 1036.5,176.832 1037,131.5C 1042.75,130.359 1048.58,130.193 1054.5,131C 1055,131.5 1055.5,132 1056,132.5C 1056.33,136.167 1056.67,139.833 1057,143.5C 1063.39,136.927 1070.89,132.26 1079.5,129.5 Z"/></g>
<g><path style="opacity:0.924" fill="#fefffe" d="M 1208.5,269.5 C 1202.5,269.5 1196.5,269.5 1190.5,269.5C 1182.25,267.12 1175.08,262.787 1169,256.5C 1162.18,248.399 1157.85,239.065 1156,228.5C 1149.64,201.672 1151.97,175.672 1163,150.5C 1173.77,133.203 1189.27,126.37 1209.5,130C 1219.2,132.272 1227.04,137.439 1233,145.5C 1243.02,161.855 1246.85,179.355 1244.5,198C 1220.84,198.5 1197.17,198.667 1173.5,198.5C 1173.77,211.092 1175.6,223.425 1179,235.5C 1185.67,250.419 1196.51,254.586 1211.5,248C 1214.04,245.795 1216.21,243.295 1218,240.5C 1220.89,234.412 1223.39,228.245 1225.5,222C 1231.42,221.193 1237.25,221.359 1243,222.5C 1242.6,238.345 1236.44,251.512 1224.5,262C 1219.46,265.357 1214.12,267.857 1208.5,269.5 Z M 1194.5,147.5 C 1205.45,145.97 1213.61,149.97 1219,159.5C 1221.72,166.126 1223.56,172.959 1224.5,180C 1208.17,180.5 1191.84,180.667 1175.5,180.5C 1175.9,169.699 1179.57,160.199 1186.5,152C 1189.1,150.205 1191.77,148.705 1194.5,147.5 Z"/></g>
<g><path style="opacity:0.922" fill="#fefffe" d="M 526.5,130.5 C 532.509,130.334 538.509,130.501 544.5,131C 545.667,131.5 546.5,132.333 547,133.5C 556.622,166.605 566.622,199.605 577,232.5C 584.5,207.168 592,181.834 599.5,156.5C 604.111,155.39 608.778,155.223 613.5,156C 614.428,156.388 615.095,157.055 615.5,158C 622.839,182.031 629.672,206.197 636,230.5C 636.414,230.957 636.914,231.291 637.5,231.5C 647.793,198.785 657.793,165.952 667.5,133C 667.905,132.055 668.572,131.388 669.5,131C 675.749,130.191 681.916,130.358 688,131.5C 687.342,136.145 686.342,140.811 685,145.5C 671.669,185.995 658.835,226.661 646.5,267.5C 640.167,267.5 633.833,267.5 627.5,267.5C 620.979,242.434 614.146,217.434 607,192.5C 599.863,217.411 593.03,242.411 586.5,267.5C 580.167,267.5 573.833,267.5 567.5,267.5C 553.961,223.383 540.127,179.383 526,135.5C 525.36,133.735 525.527,132.068 526.5,130.5 Z"/></g>
<g><path style="opacity:0.922" fill="#fefffe" d="M 692.5,130.5 C 698.509,130.334 704.509,130.501 710.5,131C 711.701,131.903 712.535,133.069 713,134.5C 722.615,167.342 732.615,200.009 743,232.5C 750.28,206.871 757.78,181.371 765.5,156C 770.167,155.333 774.833,155.333 779.5,156C 780,156.5 780.5,157 781,157.5C 788.057,182.605 795.39,207.605 803,232.5C 813.002,199.162 823.002,165.828 833,132.5C 833.75,131.874 834.584,131.374 835.5,131C 841.167,130.333 846.833,130.333 852.5,131C 853.308,131.308 853.975,131.808 854.5,132.5C 840.467,177.312 826.133,221.979 811.5,266.5C 805.278,267.809 799.111,267.809 793,266.5C 786.853,241.904 780.019,217.57 772.5,193.5C 765.372,217.812 758.372,242.145 751.5,266.5C 745.278,267.809 739.111,267.809 733,266.5C 719.22,221.882 705.054,177.382 690.5,133C 691.056,131.989 691.722,131.156 692.5,130.5 Z"/></g>
<g><path style="opacity:1" fill="#fec90d" d="M 136.5,269.5 C 121.5,269.5 106.5,269.5 91.5,269.5C 91.7986,261.27 89.9652,253.604 86,246.5C 81.3294,240.997 76.496,235.664 71.5,230.5C 78.2897,228.307 85.2897,226.64 92.5,225.5C 96.0438,220.245 99.7105,215.079 103.5,210C 105.167,210.667 106.833,210.667 108.5,210C 113.88,215.418 118.547,221.418 122.5,228C 128.55,228.721 134.55,229.721 140.5,231C 145.416,232.848 146.583,236.014 144,240.5C 140.167,244.333 136.333,248.167 132.5,252C 134.953,257.541 136.287,263.374 136.5,269.5 Z"/></g>
<g><path style="opacity:0.844" fill="#fefffe" d="M 983.5,247.5 C 989.833,247.5 996.167,247.5 1002.5,247.5C 1002.67,254.175 1002.5,260.842 1002,267.5C 995.667,268.833 989.333,268.833 983,267.5C 982.208,260.753 982.374,254.086 983.5,247.5 Z"/></g>
<g><path style="opacity:1" fill="#fefffe" d="M 96.5,256.5 C 97.675,256.281 98.675,256.614 99.5,257.5C 100.348,259.409 100.682,261.409 100.5,263.5C 96.3219,262.812 94.9886,260.478 96.5,256.5 Z"/></g>
<g><path style="opacity:1" fill="#fefffe" d="M 102.5,259.5 C 105.779,260.031 107.113,262.031 106.5,265.5C 102.262,265.28 100.928,263.28 102.5,259.5 Z"/></g>
</svg>
