<?xml version="1.0" encoding="UTF-8"?>
<!DOCTYPE svg PUBLIC "-//W3C//DTD SVG 1.1//EN" "http://www.w3.org/Graphics/SVG/1.1/DTD/svg11.dtd">
<svg xmlns="http://www.w3.org/2000/svg" version="1.1" width="720px" height="720px" style="shape-rendering:geometricPrecision; text-rendering:geometricPrecision; image-rendering:optimizeQuality; fill-rule:evenodd; clip-rule:evenodd" xmlns:xlink="http://www.w3.org/1999/xlink">
<g><path style="opacity:1" fill="#fbfdf7" d="M 452.5,-0.5 C 461.167,-0.5 469.833,-0.5 478.5,-0.5C 479.661,7.45569 480.494,15.4557 481,23.5C 481.5,56.4983 481.667,89.4983 481.5,122.5C 482.93,122.579 484.264,122.246 485.5,121.5C 497.466,107.866 509.799,94.5328 522.5,81.5C 546.729,61.6105 570.062,40.6105 592.5,18.5C 595.084,17.6072 597.751,17.2739 600.5,17.5C 603.611,40.5536 605.278,63.7203 605.5,87C 604.491,108.578 602.991,130.078 601,151.5C 626.985,158.045 651.818,167.712 675.5,180.5C 682.654,186.247 690.321,191.247 698.5,195.5C 704.5,200.833 710.5,206.167 716.5,211.5C 717.417,212.127 718.417,212.461 719.5,212.5C 719.5,381.5 719.5,550.5 719.5,719.5C 547.167,719.5 374.833,719.5 202.5,719.5C 198.521,714.188 193.854,709.521 188.5,705.5C 174.714,697.274 160.381,690.107 145.5,684C 109.256,674.544 74.2561,661.711 40.5,645.5C 29.5628,638.893 18.8962,631.893 8.5,624.5C 5.07892,621.419 2.07892,618.086 -0.5,614.5C -0.5,453.833 -0.5,293.167 -0.5,132.5C 7.91679,123.753 17.2501,116.086 27.5,109.5C 40.2679,102.782 53.2679,96.6154 66.5,91C 74.5,88.6667 82.5,86.3333 90.5,84C 153.687,81.7649 203.687,105.932 240.5,156.5C 241.333,158.167 242.167,159.833 243,161.5C 243.173,165.541 243.673,169.541 244.5,173.5C 258.622,166.273 272.288,158.273 285.5,149.5C 294.752,144.44 304.418,140.44 314.5,137.5C 350.106,99.2259 386.439,61.5593 423.5,24.5C 433.425,16.3854 443.092,8.05203 452.5,-0.5 Z M 105.5,169.5 C 122.86,168.183 139.86,170.017 156.5,175C 167.517,181.509 178.85,187.509 190.5,193C 198.75,194.717 207.084,195.884 215.5,196.5C 211.5,199.5 207.5,202.5 203.5,205.5C 188.28,223.611 174.28,242.611 161.5,262.5C 148.257,287.133 141.091,313.466 140,341.5C 137.51,381.54 146.344,418.874 166.5,453.5C 174.614,463.617 181.948,474.284 188.5,485.5C 204.996,503.003 222.996,518.67 242.5,532.5C 251.252,537.862 260.586,542.029 270.5,545C 262.238,549.129 253.571,552.129 244.5,554C 232.282,554.923 220.115,555.757 208,556.5C 175.998,549.081 145.831,537.081 117.5,520.5C 117.5,519.5 117.5,518.5 117.5,517.5C 115.5,516.833 113.5,516.167 111.5,515.5C 111.5,514.5 111.5,513.5 111.5,512.5C 108.553,511.595 105.887,510.095 103.5,508C 96.979,502.311 90.3123,496.811 83.5,491.5C 78.2159,483.881 72.5492,476.548 66.5,469.5C 60.7987,459.292 55.2987,448.959 50,438.5C 47.3062,429.724 44.3062,421.057 41,412.5C 29.1882,359.461 27.5216,306.128 36,252.5C 37.9195,240.659 42.0862,229.659 48.5,219.5C 61.6135,196.049 80.6135,179.382 105.5,169.5 Z M 310.5,218.5 C 327.894,218.12 345.227,218.954 362.5,221C 368.426,223.46 374.426,225.626 380.5,227.5C 380.5,228.5 380.5,229.5 380.5,230.5C 381.5,230.5 382.5,230.5 383.5,230.5C 383.5,231.5 383.5,232.5 383.5,233.5C 384.5,233.5 385.5,233.5 386.5,233.5C 386.5,234.5 386.5,235.5 386.5,236.5C 387.5,236.5 388.5,236.5 389.5,236.5C 394.07,245.059 396.07,254.226 395.5,264C 395.742,276.741 393.409,288.908 388.5,300.5C 385.5,300.833 383.833,302.5 383.5,305.5C 382.5,305.5 381.5,305.5 380.5,305.5C 379.833,307.5 379.167,309.5 378.5,311.5C 377.5,311.5 376.5,311.5 375.5,311.5C 374.833,313.5 374.167,315.5 373.5,317.5C 372.5,317.5 371.5,317.5 370.5,317.5C 370.5,318.5 370.5,319.5 370.5,320.5C 366.424,321.32 363.757,323.653 362.5,327.5C 360.94,327.519 359.44,327.852 358,328.5C 333.802,345.792 307.302,358.292 278.5,366C 260.227,368.939 241.893,369.273 223.5,367C 216.345,364.054 209.345,360.887 202.5,357.5C 202.5,356.5 202.5,355.5 202.5,354.5C 200.5,353.833 198.5,353.167 196.5,352.5C 194.531,348.536 192.531,344.536 190.5,340.5C 187.402,324.495 188.068,308.662 192.5,293C 197.028,285.718 201.028,278.218 204.5,270.5C 205.5,270.5 206.5,270.5 207.5,270.5C 207.5,269.5 207.5,268.5 207.5,267.5C 208.5,267.5 209.5,267.5 210.5,267.5C 211.167,265.5 211.833,263.5 212.5,261.5C 213.5,261.5 214.5,261.5 215.5,261.5C 216.833,258.5 218.167,255.5 219.5,252.5C 220.5,252.5 221.5,252.5 222.5,252.5C 222.5,251.5 222.5,250.5 222.5,249.5C 223.5,249.5 224.5,249.5 225.5,249.5C 225.5,248.5 225.5,247.5 225.5,246.5C 232.231,243.016 238.731,239.016 245,234.5C 247.433,233.521 249.933,232.855 252.5,232.5C 252.5,231.5 252.5,230.5 252.5,229.5C 260.332,226.388 268.332,223.555 276.5,221C 287.967,219.977 299.3,219.144 310.5,218.5 Z M 568.5,239.5 C 586.967,238.749 605.301,239.915 623.5,243C 629.662,247.221 636.329,250.388 643.5,252.5C 643.833,255.5 645.5,257.167 648.5,257.5C 651.92,264.189 653.253,271.356 652.5,279C 652.825,289.55 651.158,299.717 647.5,309.5C 646.5,309.5 645.5,309.5 644.5,309.5C 643.167,312.5 641.833,315.5 640.5,318.5C 637.5,318.833 635.833,320.5 635.5,323.5C 633.5,324.167 631.5,324.833 629.5,325.5C 629.5,326.5 629.5,327.5 629.5,328.5C 621.19,333.11 612.69,337.443 604,341.5C 591.5,345.667 579,349.833 566.5,354C 545.259,357.727 523.925,358.394 502.5,356C 493.322,352.445 484.322,348.612 475.5,344.5C 475.5,343.5 475.5,342.5 475.5,341.5C 472.5,340.167 469.5,338.833 466.5,337.5C 465.833,335.5 465.167,333.5 464.5,331.5C 463.5,331.5 462.5,331.5 461.5,331.5C 461.5,330.5 461.5,329.5 461.5,328.5C 460.5,328.5 459.5,328.5 458.5,328.5C 455.701,315.631 456.034,302.797 459.5,290C 462.697,285.882 465.03,281.382 466.5,276.5C 467.5,276.5 468.5,276.5 469.5,276.5C 469.5,275.5 469.5,274.5 469.5,273.5C 470.5,273.5 471.5,273.5 472.5,273.5C 472.5,272.5 472.5,271.5 472.5,270.5C 473.5,270.5 474.5,270.5 475.5,270.5C 475.5,269.5 475.5,268.5 475.5,267.5C 478.5,266.167 481.5,264.833 484.5,263.5C 484.5,262.5 484.5,261.5 484.5,260.5C 511.644,249.78 539.644,242.78 568.5,239.5 Z M 357.5,367.5 C 364.167,367.5 370.833,367.5 377.5,367.5C 377.5,371.833 377.5,376.167 377.5,380.5C 375.5,380.5 373.5,380.5 371.5,380.5C 371.64,382.124 370.973,383.29 369.5,384C 363.996,384.83 358.663,384.33 353.5,382.5C 353.5,378.167 353.5,373.833 353.5,369.5C 355.483,369.843 356.817,369.176 357.5,367.5 Z M 327.5,388.5 C 337.903,388.258 348.236,388.925 358.5,390.5C 358.5,391.5 358.5,392.5 358.5,393.5C 381.842,393.398 405.175,393.731 428.5,394.5C 428.244,403.843 427.744,413.176 427,422.5C 426.055,428.83 424.222,434.83 421.5,440.5C 420.5,440.5 419.5,440.5 418.5,440.5C 418.5,441.5 418.5,442.5 418.5,443.5C 417.5,443.5 416.5,443.5 415.5,443.5C 415.5,444.5 415.5,445.5 415.5,446.5C 406.412,449.281 397.079,450.114 387.5,449C 381.5,448.333 375.5,447.667 369.5,447C 364.587,444.533 359.587,442.366 354.5,440.5C 354.5,439.5 354.5,438.5 354.5,437.5C 351.5,436.167 348.5,434.833 345.5,433.5C 344.833,431.5 344.167,429.5 343.5,427.5C 342.5,427.5 341.5,427.5 340.5,427.5C 337.833,422.5 335.167,417.5 332.5,412.5C 331.5,412.5 330.5,412.5 329.5,412.5C 326.54,404.684 325.873,396.684 327.5,388.5 Z M 614.5,416.5 C 624.839,416.334 635.172,416.5 645.5,417C 655.117,419.596 664.117,423.43 672.5,428.5C 676.058,434.1 678.891,440.1 681,446.5C 682.174,456.054 681.341,465.388 678.5,474.5C 677.5,474.5 676.5,474.5 675.5,474.5C 674.833,476.5 674.167,478.5 673.5,480.5C 672.5,480.5 671.5,480.5 670.5,480.5C 670.5,481.5 670.5,482.5 670.5,483.5C 668.5,484.167 666.5,484.833 664.5,485.5C 664.5,486.5 664.5,487.5 664.5,488.5C 658.289,489.75 653.623,493.083 650.5,498.5C 650.167,500.833 649.833,503.167 649.5,505.5C 650.825,514.115 651.491,522.781 651.5,531.5C 647.167,531.5 642.833,531.5 638.5,531.5C 635.513,514.37 635.846,497.37 639.5,480.5C 644.696,479.435 649.696,477.768 654.5,475.5C 654.5,474.5 654.5,473.5 654.5,472.5C 656.5,471.833 658.5,471.167 660.5,470.5C 661.167,468.5 661.833,466.5 662.5,464.5C 663.5,464.5 664.5,464.5 665.5,464.5C 668.64,455.891 666.973,448.224 660.5,441.5C 649.795,433.543 637.795,429.709 624.5,430C 614.384,432.243 605.384,436.743 597.5,443.5C 595.492,445.506 594.159,447.839 593.5,450.5C 592.5,450.5 591.5,450.5 590.5,450.5C 588.319,455.289 586.652,460.289 585.5,465.5C 581.167,465.5 576.833,465.5 572.5,465.5C 572.334,461.154 572.501,456.821 573,452.5C 574.792,448.575 576.292,444.575 577.5,440.5C 578.5,440.5 579.5,440.5 580.5,440.5C 581.833,437.5 583.167,434.5 584.5,431.5C 590.229,428.684 595.729,425.351 601,421.5C 605.714,420.099 610.214,418.432 614.5,416.5 Z M 321.5,513.5 C 325.846,513.334 330.179,513.501 334.5,514C 339.088,516.462 343.755,518.629 348.5,520.5C 348.5,521.5 348.5,522.5 348.5,523.5C 350.5,523.833 352.5,524.167 354.5,524.5C 354.5,525.5 354.5,526.5 354.5,527.5C 355.5,527.5 356.5,527.5 357.5,527.5C 357.5,528.5 357.5,529.5 357.5,530.5C 360.5,531.833 363.5,533.167 366.5,534.5C 367.167,536.5 367.833,538.5 368.5,540.5C 369.5,540.5 370.5,540.5 371.5,540.5C 372.167,542.5 372.833,544.5 373.5,546.5C 374.5,546.5 375.5,546.5 376.5,546.5C 377.64,549.025 378.307,551.692 378.5,554.5C 379.5,554.5 380.5,554.5 381.5,554.5C 381.5,555.5 381.5,556.5 381.5,557.5C 383.5,557.5 385.5,557.5 387.5,557.5C 387.5,556.5 387.5,555.5 387.5,554.5C 394.964,550.865 402.464,547.198 410,543.5C 413.431,542.189 416.931,541.189 420.5,540.5C 420.5,539.5 420.5,538.5 420.5,537.5C 426.572,535.977 432.572,534.143 438.5,532C 443.833,531.333 449.167,531.333 454.5,532C 457.368,533.383 460.368,534.216 463.5,534.5C 464.315,551.815 461.982,568.648 456.5,585C 453.197,592.416 450.197,599.916 447.5,607.5C 446.5,607.5 445.5,607.5 444.5,607.5C 444.5,608.5 444.5,609.5 444.5,610.5C 443.5,610.5 442.5,610.5 441.5,610.5C 441.5,611.5 441.5,612.5 441.5,613.5C 440.5,613.5 439.5,613.5 438.5,613.5C 438.52,615.143 437.853,616.476 436.5,617.5C 431.162,618.679 425.828,618.679 420.5,617.5C 419.136,613.342 416.136,611.342 411.5,611.5C 411.5,610.5 411.5,609.5 411.5,608.5C 410.5,608.5 409.5,608.5 408.5,608.5C 408.167,605.5 406.5,603.833 403.5,603.5C 403.5,602.5 403.5,601.5 403.5,600.5C 402.5,600.5 401.5,600.5 400.5,600.5C 400.5,599.5 400.5,598.5 400.5,597.5C 399.5,597.5 398.5,597.5 397.5,597.5C 397.5,596.5 397.5,595.5 397.5,594.5C 396.5,594.5 395.5,594.5 394.5,594.5C 394.5,593.5 394.5,592.5 394.5,591.5C 393.5,591.5 392.5,591.5 391.5,591.5C 391.5,590.5 391.5,589.5 391.5,588.5C 390.5,588.5 389.5,588.5 388.5,588.5C 388.5,587.5 388.5,586.5 388.5,585.5C 387.5,585.5 386.5,585.5 385.5,585.5C 385.5,584.5 385.5,583.5 385.5,582.5C 384.5,582.5 383.5,582.5 382.5,582.5C 382.5,581.5 382.5,580.5 382.5,579.5C 380.712,579.215 379.045,579.548 377.5,580.5C 361,588.167 344.5,595.833 328,603.5C 323.219,604.419 318.385,604.752 313.5,604.5C 311.306,581.221 310.972,557.887 312.5,534.5C 314.511,528.49 316.511,522.49 318.5,516.5C 319.5,516.5 320.5,516.5 321.5,516.5C 321.5,515.5 321.5,514.5 321.5,513.5 Z M 569.5,549.5 C 574.412,548.974 579.078,549.641 583.5,551.5C 584.69,557.173 584.69,562.84 583.5,568.5C 578.12,568.676 572.787,568.342 567.5,567.5C 567.1,561.346 567.767,555.346 569.5,549.5 Z M 644.5,553.5 C 650.585,552.727 656.252,553.727 661.5,556.5C 662.834,561.974 662.501,567.308 660.5,572.5C 655.167,572.5 649.833,572.5 644.5,572.5C 644.5,566.167 644.5,559.833 644.5,553.5 Z M 543.5,557.5 C 548.833,557.5 554.167,557.5 559.5,557.5C 559.5,561.833 559.5,566.167 559.5,570.5C 535.359,574.577 511.026,576.577 486.5,576.5C 486.5,572.167 486.5,567.833 486.5,563.5C 500.564,563.656 514.564,562.822 528.5,561C 533.781,560.462 538.781,559.295 543.5,557.5 Z"/></g>
<g><path style="opacity:1" fill="#fbfdf7" d="M 320.5,231.5 C 331.181,232.075 341.848,232.909 352.5,234C 358.426,236.46 364.426,238.626 370.5,240.5C 370.5,241.5 370.5,242.5 370.5,243.5C 371.5,243.5 372.5,243.5 373.5,243.5C 373.5,244.5 373.5,245.5 373.5,246.5C 374.5,246.5 375.5,246.5 376.5,246.5C 378.98,252.106 380.98,257.939 382.5,264C 381.038,271.384 379.372,278.717 377.5,286C 376.484,288.176 374.818,289.343 372.5,289.5C 371.833,291.5 371.167,293.5 370.5,295.5C 369.5,295.5 368.5,295.5 367.5,295.5C 366.833,297.5 366.167,299.5 365.5,301.5C 364.5,301.5 363.5,301.5 362.5,301.5C 361.833,303.5 361.167,305.5 360.5,307.5C 357.5,308.833 354.5,310.167 351.5,311.5C 351.719,312.675 351.386,313.675 350.5,314.5C 325.301,331.793 297.967,344.626 268.5,353C 256.903,355.852 245.237,356.186 233.5,354C 226.345,351.054 219.345,347.887 212.5,344.5C 212.5,343.5 212.5,342.5 212.5,341.5C 210.857,341.52 209.524,340.853 208.5,339.5C 204.191,333.906 201.857,327.573 201.5,320.5C 202.766,315.198 203.933,309.865 205,304.5C 208.667,297.5 212.333,290.5 216,283.5C 216.333,288.5 216.667,293.5 217,298.5C 218.969,301.199 220.136,304.199 220.5,307.5C 221.5,307.5 222.5,307.5 223.5,307.5C 223.5,308.5 223.5,309.5 223.5,310.5C 224.5,310.5 225.5,310.5 226.5,310.5C 226.5,311.5 226.5,312.5 226.5,313.5C 247.036,320.751 266.369,318.418 284.5,306.5C 284.5,305.5 284.5,304.5 284.5,303.5C 286.5,302.833 288.5,302.167 290.5,301.5C 290.5,300.5 290.5,299.5 290.5,298.5C 291.5,298.5 292.5,298.5 293.5,298.5C 295.388,294.409 297.555,290.409 300,286.5C 301.483,277.213 301.816,267.879 301,258.5C 299.387,254.344 297.553,250.344 295.5,246.5C 294.5,246.5 293.5,246.5 292.5,246.5C 292.5,245.5 292.5,244.5 292.5,243.5C 289.647,242.113 286.647,240.946 283.5,240C 295.512,235.666 307.845,232.833 320.5,231.5 Z"/></g>
<g><path style="opacity:1" fill="#fbfdf7" d="M 578.5,252.5 C 588.239,252.456 597.906,253.29 607.5,255C 608.973,255.71 609.64,256.876 609.5,258.5C 613.059,258.284 616.559,258.618 620,259.5C 623.361,261.454 626.861,263.121 630.5,264.5C 631.853,265.524 632.52,266.857 632.5,268.5C 634.143,268.48 635.476,269.147 636.5,270.5C 637.994,273.148 638.994,275.982 639.5,279C 638.736,286.106 637.07,292.939 634.5,299.5C 633.5,299.5 632.5,299.5 631.5,299.5C 630.68,303.576 628.347,306.243 624.5,307.5C 624.167,310.5 622.5,312.167 619.5,312.5C 619.5,313.5 619.5,314.5 619.5,315.5C 611.19,320.11 602.69,324.443 594,328.5C 581.5,332.667 569,336.833 556.5,341C 541.933,344.406 527.266,345.073 512.5,343C 503.322,339.445 494.322,335.612 485.5,331.5C 485.5,330.5 485.5,329.5 485.5,328.5C 481.424,327.68 478.757,325.347 477.5,321.5C 476.5,321.5 475.5,321.5 474.5,321.5C 474.5,320.5 474.5,319.5 474.5,318.5C 473.5,318.5 472.5,318.5 471.5,318.5C 471.045,316.633 470.378,314.8 469.5,313C 469.796,311.112 470.296,309.278 471,307.5C 471.483,308.448 471.649,309.448 471.5,310.5C 472.5,310.5 473.5,310.5 474.5,310.5C 474.5,311.5 474.5,312.5 474.5,313.5C 477.217,314.305 479.717,315.638 482,317.5C 495.533,320.612 508.867,319.946 522,315.5C 526.273,312.314 530.773,309.647 535.5,307.5C 535.833,304.5 537.5,302.833 540.5,302.5C 541.044,300.42 541.878,298.42 543,296.5C 543.767,285.133 543.601,273.8 542.5,262.5C 541.5,262.5 540.5,262.5 539.5,262.5C 539.5,261.167 539.5,259.833 539.5,258.5C 552.477,255.618 565.477,253.618 578.5,252.5 Z"/></g>
<g><path style="opacity:1" fill="#fbfdf7" d="M 347.5,406.5 C 369.178,406.318 390.845,406.651 412.5,407.5C 413.412,411.131 413.579,414.797 413,418.5C 411.208,422.425 409.708,426.425 408.5,430.5C 407.5,430.5 406.5,430.5 405.5,430.5C 405.5,431.5 405.5,432.5 405.5,433.5C 402.749,433.528 400.415,434.528 398.5,436.5C 392.221,435.413 385.887,434.58 379.5,434C 374.587,431.533 369.587,429.366 364.5,427.5C 364.5,426.5 364.5,425.5 364.5,424.5C 360.424,423.68 357.757,421.347 356.5,417.5C 355.5,417.5 354.5,417.5 353.5,417.5C 351.827,413.657 349.827,409.991 347.5,406.5 Z"/></g>
</svg>
