<?xml version="1.0" encoding="UTF-8"?>
<!DOCTYPE svg PUBLIC "-//W3C//DTD SVG 1.1//EN" "http://www.w3.org/Graphics/SVG/1.1/DTD/svg11.dtd">
<svg xmlns="http://www.w3.org/2000/svg" version="1.1" width="552px" height="83px" style="shape-rendering:geometricPrecision; text-rendering:geometricPrecision; image-rendering:optimizeQuality; fill-rule:evenodd; clip-rule:evenodd" xmlns:xlink="http://www.w3.org/1999/xlink">
<g><path style="opacity:0.804" fill="#0d0507" d="M 72.5,-0.5 C 75.5,-0.5 78.5,-0.5 81.5,-0.5C 83.8075,0.763268 85.1408,2.76327 85.5,5.5C 85.176,15.2173 85.676,24.884 87,34.5C 91.245,47.8431 96.0784,60.8431 101.5,73.5C 100.956,76.9164 99.6223,79.9164 97.5,82.5C 94.5,82.5 91.5,82.5 88.5,82.5C 85.8416,79.9851 83.6749,76.9851 82,73.5C 78.2548,64.682 75.0881,55.682 72.5,46.5C 72.067,43.8344 71.567,41.1677 71,38.5C 64.1053,48.5971 55.9386,56.2638 46.5,61.5C 39.2762,62.7719 32.6095,61.1052 26.5,56.5C 25.2998,52.1799 23.9665,51.8466 22.5,55.5C 23.5318,61.4764 23.6984,67.4764 23,73.5C 21.5787,75.4048 20.412,77.4048 19.5,79.5C 13.2268,81.4461 8.72679,79.4461 6,73.5C 4.77958,57.2075 2.61292,41.2075 -0.5,25.5C -0.5,19.1667 -0.5,12.8333 -0.5,6.5C 3.64648,1.10598 8.64648,0.272645 14.5,4C 15.5822,5.32972 16.2488,6.82972 16.5,8.5C 17.1963,11.5536 18.6963,14.2202 21,16.5C 22.0344,20.654 23.3678,24.654 25,28.5C 26.7038,30.3734 28.5372,32.0401 30.5,33.5C 31.1667,33.5 31.5,33.8333 31.5,34.5C 31.373,37.245 32.5397,39.245 35,40.5C 35.3988,40.2716 35.5654,39.9382 35.5,39.5C 37.5731,42.0368 40.2398,43.2035 43.5,43C 56.6705,32.1185 65.5038,18.2851 70,1.5C 70.9947,0.934056 71.828,0.267389 72.5,-0.5 Z"/></g>
<g><path style="opacity:1" fill="#e9b501" d="M 74.5,2.5 C 77.6516,1.95855 80.1516,2.95855 82,5.5C 82.1682,15.5425 82.8349,25.5425 84,35.5C 87.5945,48.0054 92.2612,60.0054 98,71.5C 98.8333,77.3333 96.3333,79.8333 90.5,79C 88.6411,77.4422 87.1411,75.6089 86,73.5C 80.3482,60.2123 75.6816,46.5457 72,32.5C 65.4751,43.0249 56.9751,51.5249 46.5,58C 41.6365,58.8085 36.9699,58.1418 32.5,56C 28.6667,52.8333 24.8333,49.6667 21,46.5C 19.5611,44.7254 18.5611,42.7254 18,40.5C 19.6174,51.4065 20.2841,62.4065 20,73.5C 16.6667,77.5 13.3333,77.5 10,73.5C 8.32544,55.3941 5.99211,37.3941 3,19.5C 2.33333,15.8333 2.33333,12.1667 3,8.5C 4.86365,5.79283 7.36365,4.9595 10.5,6C 16.5526,17.3231 22.886,28.4898 29.5,39.5C 32.8198,43.821 37.1532,46.4877 42.5,47.5C 48.3714,44.139 53.5381,39.8056 58,34.5C 64.051,25.4644 68.7177,15.7978 72,5.5C 73.045,4.62656 73.8783,3.62656 74.5,2.5 Z"/></g>
<g><path style="opacity:0.773" fill="#0b0407" d="M 532.5,12.5 C 532.302,20.5341 532.635,28.5341 533.5,36.5C 534.791,36.7373 535.791,36.404 536.5,35.5C 542.077,35.108 545.744,37.4413 547.5,42.5C 547.723,47.0524 546.056,50.7191 542.5,53.5C 542.167,53.5 541.833,53.5 541.5,53.5C 540.5,53.5 539.5,53.5 538.5,53.5C 538.569,56.0842 539.735,58.0842 542,59.5C 542.399,59.2716 542.565,58.9382 542.5,58.5C 543.974,59.4363 544.974,60.7697 545.5,62.5C 545.663,64.8568 545.497,67.1902 545,69.5C 543.198,70.7893 542.031,72.4559 541.5,74.5C 537.596,76.0212 533.929,75.5212 530.5,73C 524.756,69.0215 521.423,63.5215 520.5,56.5C 509.869,55.5696 506.702,50.2363 511,40.5C 512.803,39.6866 514.303,38.5199 515.5,37C 514.379,28.8697 514.212,20.703 515,12.5C 518.479,5.34936 523.646,3.84936 530.5,8C 531.582,9.32972 532.249,10.8297 532.5,12.5 Z"/></g>
<g><path style="opacity:1" fill="#e8b401" d="M 521.5,9.5 C 524.652,8.95855 527.152,9.95855 529,12.5C 529.358,21.5155 529.858,30.5155 530.5,39.5C 534.182,39.3347 537.848,39.5014 541.5,40C 545.5,43.3333 545.5,46.6667 541.5,50C 538.833,50.3333 536.167,50.6667 533.5,51C 534.708,56.2189 537.541,60.3856 542,63.5C 542.833,69.3333 540.333,71.8333 534.5,71C 531.667,68.1667 528.833,65.3333 526,62.5C 525.025,59.2397 523.858,56.073 522.5,53C 515.701,53.8581 512.534,51.0248 513,44.5C 514.509,42.0807 516.675,41.0807 519.5,41.5C 518.508,31.8523 518.342,22.1857 519,12.5C 520.045,11.6266 520.878,10.6266 521.5,9.5 Z"/></g>
<g><path style="opacity:0.954" fill="#bd34a9" d="M 532.5,12.5 C 534.017,12.5106 535.184,13.1772 536,14.5C 536.5,21.4921 536.666,28.4921 536.5,35.5C 535.791,36.404 534.791,36.7373 533.5,36.5C 532.635,28.5341 532.302,20.5341 532.5,12.5 Z"/></g>
<g><path style="opacity:0.818" fill="#b1309f" d="M 16.5,8.5 C 18.0174,8.51056 19.1841,9.17723 20,10.5C 24.1757,17.8615 27.6757,25.5282 30.5,33.5C 28.5372,32.0401 26.7038,30.3734 25,28.5C 23.3678,24.654 22.0344,20.654 21,16.5C 18.6963,14.2202 17.1963,11.5536 16.5,8.5 Z"/></g>
<g><path style="opacity:0.774" fill="#0a0404" d="M 502.5,39.5 C 503.143,45.9448 501.476,51.6115 497.5,56.5C 496.027,57.072 494.693,57.9054 493.5,59C 496.68,59.1368 499.68,58.6368 502.5,57.5C 502.833,57.5 503.167,57.5 503.5,57.5C 506.572,58.3013 508.238,60.3013 508.5,63.5C 508.405,70.7618 504.738,74.5951 497.5,75C 496.269,76.4048 494.936,77.5714 493.5,78.5C 480.391,81.0249 471.224,76.0249 466,63.5C 462.43,47.8024 467.93,36.969 482.5,31C 489.196,30.2303 495.363,31.7303 501,35.5C 501.791,36.745 502.291,38.0783 502.5,39.5 Z"/></g>
<g><path style="opacity:0.75" fill="#0a0404" d="M 348.5,45.5 C 348.668,49.19 350.168,52.19 353,54.5C 353.399,54.2716 353.565,53.9382 353.5,53.5C 357.057,55.0042 360.723,56.5042 364.5,58C 365.582,59.3297 366.249,60.8297 366.5,62.5C 366.702,64.9892 366.202,67.3225 365,69.5C 363.188,71.3003 361.355,72.9669 359.5,74.5C 352.943,75.8698 347.276,74.2032 342.5,69.5C 342.205,67.5767 341.372,65.9101 340,64.5C 335.587,68.5106 331.42,71.8439 327.5,74.5C 317.02,76.092 309.353,72.092 304.5,62.5C 304.569,57.1463 304.902,51.813 305.5,46.5C 307.975,38.1927 313.475,33.1927 322,31.5C 330.376,34.2767 338.542,37.4434 346.5,41C 347.582,42.3297 348.249,43.8297 348.5,45.5 Z"/></g>
<g><path style="opacity:0.763" fill="#0b0406" d="M 457.5,44.5 C 459.438,52.3768 459.938,60.3768 459,68.5C 458.128,71.8556 456.628,74.8556 454.5,77.5C 446.87,79.5191 442.203,76.6858 440.5,69C 441.358,64.2052 441.691,59.3719 441.5,54.5C 441.5,53.5 441.5,52.5 441.5,51.5C 439.533,51.2606 437.699,51.5939 436,52.5C 435.667,57.8333 435.333,63.1667 435,68.5C 433.579,70.4048 432.412,72.4048 431.5,74.5C 425.227,76.4461 420.727,74.4461 418,68.5C 414.853,58.4197 414.853,48.4197 418,38.5C 426.628,34.124 435.795,32.624 445.5,34C 450.956,35.9635 454.956,39.4635 457.5,44.5 Z"/></g>
<g><path style="opacity:0.771" fill="#0c0506" d="M 175.5,41.5 C 176.049,47.6463 177.883,53.313 181,58.5C 181.495,56.5273 181.662,54.5273 181.5,52.5C 181.188,40.5037 186.522,36.6703 197.5,41C 198.386,42.6147 199.386,44.1147 200.5,45.5C 199.957,45.56 199.624,45.8933 199.5,46.5C 202.078,48.5738 203.578,51.2405 204,54.5C 205.076,57.079 206.909,58.7457 209.5,59.5C 210.268,58.7375 210.768,57.7375 211,56.5C 211.333,51.5 211.667,46.5 212,41.5C 215.768,34.0785 221.101,32.7452 228,37.5C 228.791,38.745 229.291,40.0783 229.5,41.5C 229.762,49.2205 229.262,56.8872 228,64.5C 224.627,69.691 220.794,74.3576 216.5,78.5C 209.524,79.5119 203.191,77.8453 197.5,73.5C 197.315,71.8042 196.481,70.4709 195,69.5C 191.938,72.7322 188.771,75.7322 185.5,78.5C 178.363,79.6894 172.53,77.3561 168,71.5C 161.458,62.5393 158.124,52.5393 158,41.5C 161.479,34.3494 166.646,32.8494 173.5,37C 174.582,38.3297 175.249,39.8297 175.5,41.5 Z"/></g>
<g><path style="opacity:0.788" fill="#ab2f99" d="M 31.5,34.5 C 33.5869,35.5846 34.9202,37.2512 35.5,39.5C 35.5654,39.9382 35.3988,40.2716 35,40.5C 32.5397,39.245 31.373,37.245 31.5,34.5 Z"/></g>
<g><path style="opacity:0.745" fill="#0a0405" d="M 147.5,47.5 C 146.957,47.56 146.624,47.8933 146.5,48.5C 147.48,49.9814 148.647,51.3147 150,52.5C 150.93,59.0042 150.264,65.3375 148,71.5C 144.267,74.7454 140.434,77.7454 136.5,80.5C 120.482,82.5492 110.649,75.5492 107,59.5C 106.06,48.8769 110.227,41.0436 119.5,36C 131.073,34.6264 140.406,38.4598 147.5,47.5 Z M 129.5,56.5 C 130.496,56.4142 131.329,56.7476 132,57.5C 132.494,59.1341 132.66,60.8008 132.5,62.5C 131.5,62.5 130.5,62.5 129.5,62.5C 128.725,60.3881 128.725,58.3881 129.5,56.5 Z"/></g>
<g><path style="opacity:0.778" fill="#0d0607" d="M 252.5,42.5 C 252.339,47.874 254.005,52.5406 257.5,56.5C 258.386,55.675 258.719,54.675 258.5,53.5C 258.716,48.0068 260.05,42.8401 262.5,38C 269.381,33.7996 274.381,35.2996 277.5,42.5C 278.84,46.3709 279.673,50.3709 280,54.5C 280.853,56.1247 281.853,56.4581 283,55.5C 283.175,52.8428 283.008,50.1761 282.5,47.5C 285.271,38.448 290.938,35.948 299.5,40C 300.582,41.3297 301.249,42.8297 301.5,44.5C 301.169,51.6438 300.003,58.6438 298,65.5C 294.941,70.3396 291.441,74.6729 287.5,78.5C 282.092,79.8147 277.092,78.8147 272.5,75.5C 272.884,73.3352 272.217,71.6685 270.5,70.5C 267.07,73.263 264.07,76.263 261.5,79.5C 255.97,81.0006 251.137,79.6673 247,75.5C 242.198,67.5629 238.198,59.2295 235,50.5C 233.573,37.8182 238.74,33.6515 250.5,38C 251.582,39.3297 252.249,40.8297 252.5,42.5 Z"/></g>
<g><path style="opacity:1" fill="#e9b401" d="M 482.5,34.5 C 500.856,34.304 504.523,41.4707 493.5,56C 489.89,57.944 486.557,60.2774 483.5,63C 484.6,64.023 485.933,64.523 487.5,64.5C 491.516,62.8843 495.683,61.551 500,60.5C 504.536,61.37 506.203,64.0367 505,68.5C 501.405,71.0367 497.572,73.2034 493.5,75C 482.569,77.3851 474.735,73.5517 470,63.5C 466.283,50.1509 470.45,40.4842 482.5,34.5 Z"/></g>
<g><path style="opacity:1" fill="#e8b401" d="M 319.5,35.5 C 326.554,35.5703 332.387,38.237 337,43.5C 340.206,41.8756 342.872,42.5422 345,45.5C 345.822,47.7885 346.489,50.1218 347,52.5C 349.35,54.6829 351.517,57.0163 353.5,59.5C 355.672,59.6759 358.005,59.8425 360.5,60C 365.077,65.1037 364.077,68.7703 357.5,71C 353.403,71.6351 349.736,70.6351 346.5,68C 344.607,65.6969 342.607,63.5302 340.5,61.5C 336.307,64.8599 331.974,68.0266 327.5,71C 311.948,71.4357 305.782,63.9357 309,48.5C 310.534,42.477 314.034,38.1436 319.5,35.5 Z"/></g>
<g><path style="opacity:1" fill="#e9b401" d="M 431.5,37.5 C 448.181,35.6792 456.514,43.1792 456.5,60C 457.263,65.3701 455.93,70.0367 452.5,74C 449.364,75.0405 446.864,74.2072 445,71.5C 445.406,65.528 445.406,59.528 445,53.5C 444.727,51.6711 443.893,50.1711 442.5,49C 438.719,47.9021 435.553,48.7354 433,51.5C 432.667,57.1667 432.333,62.8333 432,68.5C 428.667,72.5 425.333,72.5 422,68.5C 419.694,59.9729 419.028,51.3062 420,42.5C 422.128,39.5422 424.794,38.8756 428,40.5C 429.518,39.8366 430.685,38.8366 431.5,37.5 Z"/></g>
<g><path style="opacity:1" fill="#e8b400" d="M 164.5,38.5 C 167.652,37.9586 170.152,38.9586 172,41.5C 172.719,46.6582 174.052,51.6582 176,56.5C 177.362,59.2356 179.196,61.5689 181.5,63.5C 182.799,62.91 183.632,61.91 184,60.5C 184.886,55.5298 185.552,50.5298 186,45.5C 189.333,41.5 192.667,41.5 196,45.5C 198.95,51.3452 202.45,56.8452 206.5,62C 212.123,64.7284 214.957,62.895 215,56.5C 215.333,51.5 215.667,46.5 216,41.5C 219.333,37.5 222.667,37.5 226,41.5C 226.762,49.2146 226.429,56.8812 225,64.5C 222.167,68.6667 218.667,72.1667 214.5,75C 210.684,75.4008 207.017,74.7342 203.5,73C 200.354,70.6884 197.354,68.1884 194.5,65.5C 192.044,68.458 189.378,71.2913 186.5,74C 183.923,75.2504 181.257,75.5837 178.5,75C 166.9,66.882 161.4,55.7153 162,41.5C 163.045,40.6266 163.878,39.6266 164.5,38.5 Z"/></g>
<g><path style="opacity:1" fill="#e9b401" d="M 119.5,39.5 C 131.557,38.5697 140.723,43.2364 147,53.5C 148.862,72.1297 140.695,79.6297 122.5,76C 113.686,70.2449 109.852,62.0782 111,51.5C 112.858,46.809 115.691,42.809 119.5,39.5 Z M 129.5,56.5 C 130.496,56.4142 131.329,56.7476 132,57.5C 132.494,59.1341 132.66,60.8008 132.5,62.5C 131.5,62.5 130.5,62.5 129.5,62.5C 128.725,60.3881 128.725,58.3881 129.5,56.5 Z"/></g>
<g><path style="opacity:1" fill="#e8b401" d="M 241.5,39.5 C 244.652,38.9586 247.152,39.9586 249,42.5C 250.214,50.1947 253.048,57.1947 257.5,63.5C 258.799,62.91 259.632,61.91 260,60.5C 262.575,54.7744 263.909,48.7744 264,42.5C 267.333,38.5 270.667,38.5 274,42.5C 275.616,46.3466 276.616,50.3466 277,54.5C 278.386,57.5337 280.219,60.2004 282.5,62.5C 284.422,60.9969 285.588,58.9969 286,56.5C 286.231,52.4159 286.898,48.4159 288,44.5C 292.814,39.9954 296.314,40.8288 298.5,47C 298.945,58.7088 294.612,68.0422 285.5,75C 282.743,75.5837 280.077,75.2504 277.5,74C 275.353,70.8851 272.853,68.0518 270,65.5C 267.167,69.6667 263.667,73.1667 259.5,76C 255.266,76.4806 251.766,74.9806 249,71.5C 244.391,63.6181 240.891,55.2848 238.5,46.5C 238.667,45.1667 238.833,43.8333 239,42.5C 240.045,41.6266 240.878,40.6266 241.5,39.5 Z"/></g>
<g><path style="opacity:0.944" fill="#bc34a8" d="M 502.5,39.5 C 505.94,40.4486 507.274,42.7819 506.5,46.5C 506.497,50.5004 505.497,54.1671 503.5,57.5C 503.167,57.5 502.833,57.5 502.5,57.5C 500.585,57.7845 498.919,57.4511 497.5,56.5C 501.476,51.6115 503.143,45.9448 502.5,39.5 Z"/></g>
<g><path style="opacity:0.913" fill="#b431a1" d="M 72.5,46.5 C 67.6692,51.1629 62.6692,55.6629 57.5,60C 53.9399,61.2367 50.2733,61.7367 46.5,61.5C 55.9386,56.2638 64.1053,48.5971 71,38.5C 71.567,41.1677 72.067,43.8344 72.5,46.5 Z"/></g>
<g><path style="opacity:0.894" fill="#ba33a6" d="M 252.5,42.5 C 254.017,42.5106 255.184,43.1772 256,44.5C 256.204,47.7974 257.037,50.7974 258.5,53.5C 258.719,54.675 258.386,55.675 257.5,56.5C 254.005,52.5406 252.339,47.874 252.5,42.5 Z"/></g>
<g><path style="opacity:0.892" fill="#bc34a7" d="M 547.5,42.5 C 549.062,42.7329 550.395,43.3995 551.5,44.5C 551.5,46.8333 551.5,49.1667 551.5,51.5C 548.838,53.2681 545.838,53.9347 542.5,53.5C 546.056,50.7191 547.723,47.0524 547.5,42.5 Z"/></g>
<g><path style="opacity:1" fill="#ba33a7" d="M 175.5,41.5 C 177.017,41.5106 178.184,42.1772 179,43.5C 179.204,46.7974 180.037,49.7974 181.5,52.5C 181.662,54.5273 181.495,56.5273 181,58.5C 177.883,53.313 176.049,47.6463 175.5,41.5 Z"/></g>
<g><path style="opacity:0.937" fill="#bb33a7" d="M 301.5,44.5 C 303.062,44.7329 304.395,45.3995 305.5,46.5C 304.902,51.813 304.569,57.1463 304.5,62.5C 302.451,68.7478 298.784,73.9145 293.5,78C 291.527,78.4955 289.527,78.6621 287.5,78.5C 291.441,74.6729 294.941,70.3396 298,65.5C 300.003,58.6438 301.169,51.6438 301.5,44.5 Z"/></g>
<g><path style="opacity:1" fill="#1b1501" d="M 484.5,45.5 C 485.675,45.281 486.675,45.6143 487.5,46.5C 485.424,48.2877 483.257,49.9544 481,51.5C 481.357,49.1304 482.524,47.1304 484.5,45.5 Z"/></g>
<g><path style="opacity:0.812" fill="#b632a3" d="M 348.5,45.5 C 351.983,46.8635 353.65,49.5301 353.5,53.5C 353.565,53.9382 353.399,54.2716 353,54.5C 350.168,52.19 348.668,49.19 348.5,45.5 Z"/></g>
<g><path style="opacity:0.992" fill="#120908" d="M 321.5,46.5 C 333.915,50.2608 334.415,54.9275 323,60.5C 322.127,60.2645 321.293,59.9312 320.5,59.5C 319.147,55.0139 319.481,50.6806 321.5,46.5 Z"/></g>
<g><path style="opacity:0.984" fill="#b732a4" d="M 277.5,42.5 C 280.2,43.1998 281.867,44.8664 282.5,47.5C 283.008,50.1761 283.175,52.8428 283,55.5C 281.853,56.4581 280.853,56.1247 280,54.5C 279.673,50.3709 278.84,46.3709 277.5,42.5 Z"/></g>
<g><path style="opacity:0.885" fill="#0d0605" d="M 123.5,50.5 C 128.448,50.8717 132.615,52.8717 136,56.5C 136.667,66.8333 132.667,69.1667 124,63.5C 121.303,59.1379 121.136,54.8045 123.5,50.5 Z M 129.5,56.5 C 130.496,56.4142 131.329,56.7476 132,57.5C 132.494,59.1341 132.66,60.8008 132.5,62.5C 131.5,62.5 130.5,62.5 129.5,62.5C 128.725,60.3881 128.725,58.3881 129.5,56.5 Z"/></g>
<g><path style="opacity:1" fill="#aa2f98" d="M 322.5,50.5 C 328.688,51.9295 328.855,54.2628 323,57.5C 322.503,55.1902 322.337,52.8568 322.5,50.5 Z"/></g>
<g><path style="opacity:0.953" fill="#bd34a9" d="M 457.5,44.5 C 460.706,46.564 462.539,49.564 463,53.5C 463.667,59.8333 463.667,66.1667 463,72.5C 461.937,76.9547 459.104,78.6214 454.5,77.5C 456.628,74.8556 458.128,71.8556 459,68.5C 459.938,60.3768 459.438,52.3768 457.5,44.5 Z"/></g>
<g><path style="opacity:0.943" fill="#bb33a7" d="M 441.5,54.5 C 440.883,54.6107 440.383,54.944 440,55.5C 439.667,61.1667 439.333,66.8333 439,72.5C 436.865,74.2785 434.365,74.9452 431.5,74.5C 432.412,72.4048 433.579,70.4048 435,68.5C 435.333,63.1667 435.667,57.8333 436,52.5C 437.699,51.5939 439.533,51.2606 441.5,51.5C 441.5,52.5 441.5,53.5 441.5,54.5 Z"/></g>
<g><path style="opacity:0.956" fill="#bb33a7" d="M 26.5,56.5 C 27.4568,63.4774 27.6234,70.4774 27,77.5C 24.8646,79.2785 22.3646,79.9452 19.5,79.5C 20.412,77.4048 21.5787,75.4048 23,73.5C 23.6984,67.4764 23.5318,61.4764 22.5,55.5C 23.9665,51.8466 25.2998,52.1799 26.5,56.5 Z"/></g>
<g><path style="opacity:0.932" fill="#ba33a6" d="M 147.5,47.5 C 154.169,52.9134 156.335,59.9134 154,68.5C 151.324,76.9975 145.491,80.9975 136.5,80.5C 140.434,77.7454 144.267,74.7454 148,71.5C 150.264,65.3375 150.93,59.0042 150,52.5C 148.647,51.3147 147.48,49.9814 146.5,48.5C 146.624,47.8933 146.957,47.56 147.5,47.5 Z"/></g>
<g><path style="opacity:0.791" fill="#ac2e9a" d="M 200.5,45.5 C 204.496,49.4836 207.496,54.1503 209.5,59.5C 206.909,58.7457 205.076,57.079 204,54.5C 203.578,51.2405 202.078,48.5738 199.5,46.5C 199.624,45.8933 199.957,45.56 200.5,45.5 Z"/></g>
<g><path style="opacity:1" fill="#ac2f9b" d="M 541.5,53.5 C 541.629,55.2161 541.962,56.8828 542.5,58.5C 542.565,58.9382 542.399,59.2716 542,59.5C 539.735,58.0842 538.569,56.0842 538.5,53.5C 539.5,53.5 540.5,53.5 541.5,53.5 Z"/></g>
<g><path style="opacity:0.926" fill="#bb33a7" d="M 229.5,41.5 C 231.017,41.5106 232.184,42.1772 233,43.5C 233.787,51.8805 233.454,60.2139 232,68.5C 228.728,74.9659 223.561,78.2992 216.5,78.5C 220.794,74.3576 224.627,69.691 228,64.5C 229.262,56.8872 229.762,49.2205 229.5,41.5 Z"/></g>
<g><path style="opacity:1" fill="#4a1542" d="M 497.5,56.5 C 498.919,57.4511 500.585,57.7845 502.5,57.5C 499.68,58.6368 496.68,59.1368 493.5,59C 494.693,57.9054 496.027,57.072 497.5,56.5 Z"/></g>
<g><path style="opacity:0.705" fill="#080304" d="M 391.5,66.5 C 391.66,68.1992 391.494,69.8659 391,71.5C 389.579,73.4048 388.412,75.4048 387.5,77.5C 378.204,79.611 373.704,75.9444 374,66.5C 377.479,59.3494 382.646,57.8494 389.5,62C 390.582,63.3297 391.249,64.8297 391.5,66.5 Z"/></g>
<g><path style="opacity:1" fill="#b0309e" d="M 129.5,56.5 C 128.725,58.3881 128.725,60.3881 129.5,62.5C 128.207,63.6448 127.041,63.3115 126,61.5C 125.178,58.8832 124.678,56.2165 124.5,53.5C 127.034,53.2591 128.7,54.2591 129.5,56.5 Z"/></g>
<g><path style="opacity:0.894" fill="#bc33a8" d="M 366.5,62.5 C 368.017,62.5106 369.184,63.1772 370,64.5C 371.398,72.5943 367.898,75.9276 359.5,74.5C 361.355,72.9669 363.188,71.3003 365,69.5C 366.202,67.3225 366.702,64.9892 366.5,62.5 Z"/></g>
<g><path style="opacity:1" fill="#ddab01" d="M 380.5,63.5 C 388.818,63.9869 390.485,67.4869 385.5,74C 377.088,73.8117 375.421,70.3117 380.5,63.5 Z"/></g>
<g><path style="opacity:0.894" fill="#b933a6" d="M 508.5,63.5 C 510.017,63.5106 511.184,64.1772 512,65.5C 512.667,67.8333 512.667,70.1667 512,72.5C 506.293,76.1133 500.126,78.1133 493.5,78.5C 494.936,77.5714 496.269,76.4048 497.5,75C 504.738,74.5951 508.405,70.7618 508.5,63.5 Z"/></g>
<g><path style="opacity:0.888" fill="#bd34a8" d="M 545.5,62.5 C 549.925,65.6336 550.592,69.4669 547.5,74C 545.527,74.4955 543.527,74.6621 541.5,74.5C 542.031,72.4559 543.198,70.7893 545,69.5C 545.497,67.1902 545.663,64.8568 545.5,62.5 Z"/></g>
<g><path style="opacity:0.903" fill="#b3319f" d="M 342.5,69.5 C 340.05,70.7765 337.717,72.2765 335.5,74C 332.854,74.4974 330.187,74.6641 327.5,74.5C 331.42,71.8439 335.587,68.5106 340,64.5C 341.372,65.9101 342.205,67.5767 342.5,69.5 Z"/></g>
<g><path style="opacity:0.888" fill="#bc34a7" d="M 391.5,66.5 C 393.017,66.5106 394.184,67.1772 395,68.5C 397.003,75.3273 394.503,78.3273 387.5,77.5C 388.412,75.4048 389.579,73.4048 391,71.5C 391.494,69.8659 391.66,68.1992 391.5,66.5 Z"/></g>
<g><path style="opacity:0.927" fill="#b532a2" d="M 197.5,73.5 C 194.588,77.4785 190.588,79.1452 185.5,78.5C 188.771,75.7322 191.938,72.7322 195,69.5C 196.481,70.4709 197.315,71.8042 197.5,73.5 Z"/></g>
<g><path style="opacity:0.888" fill="#bc34a8" d="M 85.5,5.5 C 87.0174,5.51056 88.1841,6.17723 89,7.5C 89.1682,17.5425 89.8349,27.5425 91,37.5C 94.5945,50.0054 99.2612,62.0054 105,73.5C 105.932,76.8231 105.432,79.8231 103.5,82.5C 101.5,82.5 99.5,82.5 97.5,82.5C 99.6223,79.9164 100.956,76.9164 101.5,73.5C 96.0784,60.8431 91.245,47.8431 87,34.5C 85.676,24.884 85.176,15.2173 85.5,5.5 Z"/></g>
<g><path style="opacity:0.89" fill="#b632a2" d="M 272.5,75.5 C 269.572,78.738 265.906,80.0713 261.5,79.5C 264.07,76.263 267.07,73.263 270.5,70.5C 272.217,71.6685 272.884,73.3352 272.5,75.5 Z"/></g>
</svg>
