<?xml version="1.0" encoding="UTF-8"?>
<!DOCTYPE svg PUBLIC "-//W3C//DTD SVG 1.1//EN" "http://www.w3.org/Graphics/SVG/1.1/DTD/svg11.dtd">
<svg xmlns="http://www.w3.org/2000/svg" version="1.1" width="926px" height="736px" style="shape-rendering:geometricPrecision; text-rendering:geometricPrecision; image-rendering:optimizeQuality; fill-rule:evenodd; clip-rule:evenodd" xmlns:xlink="http://www.w3.org/1999/xlink">
<g><path style="opacity:1" fill="#fbfdf8" d="M 538.5,-0.5 C 541.167,-0.5 543.833,-0.5 546.5,-0.5C 547.69,1.55326 548.357,3.88659 548.5,6.5C 552.052,50.4265 553.385,94.4265 552.5,138.5C 553.93,138.579 555.264,138.246 556.5,137.5C 584.765,105.253 615.432,75.5867 648.5,48.5C 653.167,43.8333 657.833,39.1667 662.5,34.5C 663.386,33.675 663.719,32.675 663.5,31.5C 665.833,31.5 668.167,31.5 670.5,31.5C 673.545,55.2296 675.212,79.0629 675.5,103C 674.162,124.532 672.995,146.032 672,167.5C 677.729,169.582 683.562,171.415 689.5,173C 702.635,179.923 715.635,187.09 728.5,194.5C 728.5,195.5 728.5,196.5 728.5,197.5C 745.886,208.19 762.219,220.523 777.5,234.5C 795.412,254.414 814.078,273.748 833.5,292.5C 842.21,302.208 850.543,312.208 858.5,322.5C 887.583,364.014 907.417,409.681 918,459.5C 921.163,480.894 923.663,502.228 925.5,523.5C 925.5,543.167 925.5,562.833 925.5,582.5C 919.369,615.663 909.202,647.663 895,678.5C 889.289,685.316 884.456,692.649 880.5,700.5C 879.5,700.5 878.5,700.5 877.5,700.5C 876.167,703.5 874.833,706.5 873.5,709.5C 872.5,709.5 871.5,709.5 870.5,709.5C 868.5,713.5 866.5,717.5 864.5,721.5C 863.5,721.5 862.5,721.5 861.5,721.5C 860.167,724.5 858.833,727.5 857.5,730.5C 856.5,730.5 855.5,730.5 854.5,730.5C 854.169,732.322 853.502,733.989 852.5,735.5C 659.5,735.5 466.5,735.5 273.5,735.5C 271.569,732.903 269.236,730.569 266.5,728.5C 249.481,718.99 232.148,709.99 214.5,701.5C 213.614,700.675 213.281,699.675 213.5,698.5C 207.672,697.391 202.172,695.391 197,692.5C 187.994,685.823 178.494,680.157 168.5,675.5C 168.5,674.5 168.5,673.5 168.5,672.5C 164.5,670.833 160.5,669.167 156.5,667.5C 156.5,666.5 156.5,665.5 156.5,664.5C 152.5,662.5 148.5,660.5 144.5,658.5C 144.5,657.5 144.5,656.5 144.5,655.5C 142.5,654.833 140.5,654.167 138.5,653.5C 138.5,652.5 138.5,651.5 138.5,650.5C 137.5,650.5 136.5,650.5 135.5,650.5C 135.5,649.5 135.5,648.5 135.5,647.5C 133.5,646.833 131.5,646.167 129.5,645.5C 129.5,644.5 129.5,643.5 129.5,642.5C 128.5,642.5 127.5,642.5 126.5,642.5C 125.833,640.5 125.167,638.5 124.5,636.5C 123.5,636.5 122.5,636.5 121.5,636.5C 121.5,635.5 121.5,634.5 121.5,633.5C 119.5,632.833 117.5,632.167 115.5,631.5C 115.5,630.5 115.5,629.5 115.5,628.5C 114.5,628.5 113.5,628.5 112.5,628.5C 111.833,626.5 111.167,624.5 110.5,622.5C 109.5,622.5 108.5,622.5 107.5,622.5C 106.833,620.5 106.167,618.5 105.5,616.5C 104.5,616.5 103.5,616.5 102.5,616.5C 102.5,615.5 102.5,614.5 102.5,613.5C 101.5,613.5 100.5,613.5 99.5,613.5C 98.8333,611.5 98.1667,609.5 97.5,607.5C 96.5,607.5 95.5,607.5 94.5,607.5C 94.5,606.5 94.5,605.5 94.5,604.5C 92.857,604.52 91.5237,603.853 90.5,602.5C 86.9816,597.728 83.9816,592.728 81.5,587.5C 77.6533,586.243 75.32,583.576 74.5,579.5C 73.5,579.5 72.5,579.5 71.5,579.5C 61.4151,562.861 51.4151,546.028 41.5,529C 28.9035,500.217 18.0701,470.717 9,440.5C 5.49468,424.446 2.32801,408.446 -0.5,392.5C -0.5,369.167 -0.5,345.833 -0.5,322.5C 1.31464,310.686 2.81464,298.686 4,286.5C 6.02334,269.771 9.69001,253.438 15,237.5C 21.5401,223.419 28.3734,209.419 35.5,195.5C 43.5879,183.657 51.9213,171.991 60.5,160.5C 80.9505,139.702 104.117,122.702 130,109.5C 141.195,105.1 152.695,101.933 164.5,100C 226.546,98.5258 275.546,122.693 311.5,172.5C 312.333,174.167 313.167,175.833 314,177.5C 314.173,181.541 314.673,185.541 315.5,189.5C 329.622,182.273 343.288,174.273 356.5,165.5C 365.752,160.44 375.418,156.44 385.5,153.5C 423.467,112.866 462.134,72.8657 501.5,33.5C 513.537,23.7865 525.203,13.7865 536.5,3.5C 537.705,2.42312 538.372,1.08979 538.5,-0.5 Z M 182.5,186.5 C 201.554,186.286 219.887,189.619 237.5,196.5C 245.343,200.922 253.343,205.088 261.5,209C 269.75,210.717 278.084,211.884 286.5,212.5C 282.5,215.5 278.5,218.5 274.5,221.5C 259.28,239.611 245.28,258.611 232.5,278.5C 219.257,303.133 212.091,329.466 211,357.5C 208.51,397.54 217.344,434.874 237.5,469.5C 245.614,479.617 252.948,490.284 259.5,501.5C 275.996,519.003 293.996,534.67 313.5,548.5C 322.252,553.862 331.586,558.029 341.5,561C 333.238,565.129 324.571,568.129 315.5,570C 303.282,570.923 291.115,571.757 279,572.5C 246.998,565.081 216.831,553.081 188.5,536.5C 188.5,535.5 188.5,534.5 188.5,533.5C 186.5,532.833 184.5,532.167 182.5,531.5C 182.5,530.5 182.5,529.5 182.5,528.5C 179.553,527.595 176.887,526.095 174.5,524C 166.874,517.176 159.208,510.343 151.5,503.5C 146.213,495.25 140.213,487.584 133.5,480.5C 119.125,452.749 109.625,423.416 105,392.5C 99.7252,351.023 100.392,309.69 107,268.5C 108.92,256.659 113.086,245.659 119.5,235.5C 130.677,215.596 146.344,200.429 166.5,190C 171.905,188.504 177.239,187.337 182.5,186.5 Z M 381.5,234.5 C 398.894,234.12 416.227,234.954 433.5,237C 439.426,239.46 445.426,241.626 451.5,243.5C 451.5,244.5 451.5,245.5 451.5,246.5C 452.5,246.5 453.5,246.5 454.5,246.5C 454.5,247.5 454.5,248.5 454.5,249.5C 455.5,249.5 456.5,249.5 457.5,249.5C 457.5,250.5 457.5,251.5 457.5,252.5C 458.5,252.5 459.5,252.5 460.5,252.5C 465.07,261.059 467.07,270.226 466.5,280C 466.742,292.741 464.409,304.908 459.5,316.5C 456.5,316.833 454.833,318.5 454.5,321.5C 453.5,321.5 452.5,321.5 451.5,321.5C 450.833,323.5 450.167,325.5 449.5,327.5C 448.5,327.5 447.5,327.5 446.5,327.5C 445.833,329.5 445.167,331.5 444.5,333.5C 443.5,333.5 442.5,333.5 441.5,333.5C 441.5,334.5 441.5,335.5 441.5,336.5C 437.424,337.32 434.757,339.653 433.5,343.5C 431.94,343.519 430.44,343.852 429,344.5C 404.802,361.792 378.302,374.292 349.5,382C 331.227,384.939 312.893,385.273 294.5,383C 287.345,380.054 280.345,376.887 273.5,373.5C 273.5,372.5 273.5,371.5 273.5,370.5C 271.5,369.833 269.5,369.167 267.5,368.5C 265.531,364.536 263.531,360.536 261.5,356.5C 258.402,340.495 259.068,324.662 263.5,309C 268.028,301.718 272.028,294.218 275.5,286.5C 276.5,286.5 277.5,286.5 278.5,286.5C 278.5,285.5 278.5,284.5 278.5,283.5C 279.5,283.5 280.5,283.5 281.5,283.5C 282.167,281.5 282.833,279.5 283.5,277.5C 284.5,277.5 285.5,277.5 286.5,277.5C 287.833,274.5 289.167,271.5 290.5,268.5C 291.5,268.5 292.5,268.5 293.5,268.5C 293.5,267.5 293.5,266.5 293.5,265.5C 294.5,265.5 295.5,265.5 296.5,265.5C 296.5,264.5 296.5,263.5 296.5,262.5C 303.231,259.016 309.731,255.016 316,250.5C 318.433,249.521 320.933,248.855 323.5,248.5C 323.5,247.5 323.5,246.5 323.5,245.5C 331.332,242.388 339.332,239.555 347.5,237C 358.967,235.977 370.3,235.144 381.5,234.5 Z M 639.5,255.5 C 657.967,254.749 676.301,255.915 694.5,259C 700.662,263.221 707.329,266.388 714.5,268.5C 714.833,271.5 716.5,273.167 719.5,273.5C 722.92,280.189 724.253,287.356 723.5,295C 723.825,305.55 722.158,315.717 718.5,325.5C 717.5,325.5 716.5,325.5 715.5,325.5C 714.167,328.5 712.833,331.5 711.5,334.5C 708.5,334.833 706.833,336.5 706.5,339.5C 704.5,340.167 702.5,340.833 700.5,341.5C 700.5,342.5 700.5,343.5 700.5,344.5C 692.19,349.11 683.69,353.443 675,357.5C 662.5,361.667 650,365.833 637.5,370C 616.259,373.727 594.925,374.394 573.5,372C 564.322,368.445 555.322,364.612 546.5,360.5C 546.5,359.5 546.5,358.5 546.5,357.5C 543.5,356.167 540.5,354.833 537.5,353.5C 536.833,351.5 536.167,349.5 535.5,347.5C 534.5,347.5 533.5,347.5 532.5,347.5C 532.5,346.5 532.5,345.5 532.5,344.5C 531.5,344.5 530.5,344.5 529.5,344.5C 526.701,331.631 527.034,318.797 530.5,306C 533.697,301.882 536.03,297.382 537.5,292.5C 538.5,292.5 539.5,292.5 540.5,292.5C 540.5,291.5 540.5,290.5 540.5,289.5C 541.5,289.5 542.5,289.5 543.5,289.5C 543.5,288.5 543.5,287.5 543.5,286.5C 544.5,286.5 545.5,286.5 546.5,286.5C 546.5,285.5 546.5,284.5 546.5,283.5C 549.5,282.167 552.5,280.833 555.5,279.5C 555.5,278.5 555.5,277.5 555.5,276.5C 582.644,265.78 610.644,258.78 639.5,255.5 Z M 428.5,383.5 C 438.4,381.099 444.733,384.599 447.5,394C 446.615,396.157 444.948,396.99 442.5,396.5C 442.64,398.124 441.973,399.29 440.5,400C 434.996,400.83 429.663,400.33 424.5,398.5C 424.5,394.167 424.5,389.833 424.5,385.5C 426.483,385.843 427.817,385.176 428.5,383.5 Z M 398.5,404.5 C 408.903,404.258 419.236,404.925 429.5,406.5C 429.5,407.5 429.5,408.5 429.5,409.5C 452.842,409.398 476.175,409.731 499.5,410.5C 499.244,419.843 498.744,429.176 498,438.5C 497.055,444.83 495.222,450.83 492.5,456.5C 491.5,456.5 490.5,456.5 489.5,456.5C 489.5,457.5 489.5,458.5 489.5,459.5C 488.5,459.5 487.5,459.5 486.5,459.5C 486.5,460.5 486.5,461.5 486.5,462.5C 477.412,465.281 468.079,466.114 458.5,465C 452.5,464.333 446.5,463.667 440.5,463C 435.587,460.533 430.587,458.366 425.5,456.5C 425.5,455.5 425.5,454.5 425.5,453.5C 422.5,452.167 419.5,450.833 416.5,449.5C 415.833,447.5 415.167,445.5 414.5,443.5C 413.5,443.5 412.5,443.5 411.5,443.5C 408.833,438.5 406.167,433.5 403.5,428.5C 402.5,428.5 401.5,428.5 400.5,428.5C 397.54,420.684 396.873,412.684 398.5,404.5 Z M 685.5,432.5 C 695.839,432.334 706.172,432.5 716.5,433C 726.117,435.596 735.117,439.43 743.5,444.5C 752.144,458.997 753.811,474.33 748.5,490.5C 747.5,490.5 746.5,490.5 745.5,490.5C 744.833,492.5 744.167,494.5 743.5,496.5C 742.5,496.5 741.5,496.5 740.5,496.5C 740.5,497.5 740.5,498.5 740.5,499.5C 738.5,500.167 736.5,500.833 734.5,501.5C 734.5,502.5 734.5,503.5 734.5,504.5C 728.796,506.079 724.462,509.413 721.5,514.5C 720.599,525.489 720.599,536.489 721.5,547.5C 717.5,547.5 713.5,547.5 709.5,547.5C 706.513,530.37 706.846,513.37 710.5,496.5C 715.696,495.435 720.696,493.768 725.5,491.5C 725.5,490.5 725.5,489.5 725.5,488.5C 727.5,487.833 729.5,487.167 731.5,486.5C 732.167,484.5 732.833,482.5 733.5,480.5C 734.5,480.5 735.5,480.5 736.5,480.5C 739.64,471.891 737.973,464.224 731.5,457.5C 720.795,449.543 708.795,445.709 695.5,446C 685.384,448.243 676.384,452.743 668.5,459.5C 666.492,461.506 665.159,463.839 664.5,466.5C 663.5,466.5 662.5,466.5 661.5,466.5C 659.319,471.289 657.652,476.289 656.5,481.5C 652.167,481.5 647.833,481.5 643.5,481.5C 643.334,477.154 643.501,472.821 644,468.5C 645.792,464.575 647.292,460.575 648.5,456.5C 649.5,456.5 650.5,456.5 651.5,456.5C 652.833,453.5 654.167,450.5 655.5,447.5C 661.229,444.684 666.729,441.351 672,437.5C 676.714,436.099 681.214,434.432 685.5,432.5 Z M 392.5,529.5 C 396.846,529.334 401.179,529.501 405.5,530C 410.088,532.462 414.755,534.629 419.5,536.5C 419.5,537.5 419.5,538.5 419.5,539.5C 421.5,539.833 423.5,540.167 425.5,540.5C 425.5,541.5 425.5,542.5 425.5,543.5C 426.5,543.5 427.5,543.5 428.5,543.5C 428.5,544.5 428.5,545.5 428.5,546.5C 431.5,547.833 434.5,549.167 437.5,550.5C 438.167,552.5 438.833,554.5 439.5,556.5C 440.5,556.5 441.5,556.5 442.5,556.5C 443.167,558.5 443.833,560.5 444.5,562.5C 445.5,562.5 446.5,562.5 447.5,562.5C 448.64,565.025 449.307,567.692 449.5,570.5C 450.5,570.5 451.5,570.5 452.5,570.5C 452.5,571.5 452.5,572.5 452.5,573.5C 454.5,573.5 456.5,573.5 458.5,573.5C 458.5,572.5 458.5,571.5 458.5,570.5C 465.964,566.865 473.464,563.198 481,559.5C 484.431,558.189 487.931,557.189 491.5,556.5C 491.5,555.5 491.5,554.5 491.5,553.5C 497.572,551.977 503.572,550.143 509.5,548C 514.833,547.333 520.167,547.333 525.5,548C 528.368,549.383 531.368,550.216 534.5,550.5C 535.315,567.815 532.982,584.648 527.5,601C 524.197,608.416 521.197,615.916 518.5,623.5C 517.5,623.5 516.5,623.5 515.5,623.5C 515.5,624.5 515.5,625.5 515.5,626.5C 514.5,626.5 513.5,626.5 512.5,626.5C 512.5,627.5 512.5,628.5 512.5,629.5C 511.5,629.5 510.5,629.5 509.5,629.5C 509.52,631.143 508.853,632.476 507.5,633.5C 502.162,634.679 496.828,634.679 491.5,633.5C 490.136,629.342 487.136,627.342 482.5,627.5C 482.5,626.5 482.5,625.5 482.5,624.5C 481.5,624.5 480.5,624.5 479.5,624.5C 479.167,621.5 477.5,619.833 474.5,619.5C 474.5,618.5 474.5,617.5 474.5,616.5C 473.5,616.5 472.5,616.5 471.5,616.5C 471.5,615.5 471.5,614.5 471.5,613.5C 470.5,613.5 469.5,613.5 468.5,613.5C 468.5,612.5 468.5,611.5 468.5,610.5C 467.5,610.5 466.5,610.5 465.5,610.5C 465.5,609.5 465.5,608.5 465.5,607.5C 464.5,607.5 463.5,607.5 462.5,607.5C 462.5,606.5 462.5,605.5 462.5,604.5C 461.5,604.5 460.5,604.5 459.5,604.5C 459.5,603.5 459.5,602.5 459.5,601.5C 458.5,601.5 457.5,601.5 456.5,601.5C 456.5,600.5 456.5,599.5 456.5,598.5C 455.5,598.5 454.5,598.5 453.5,598.5C 453.5,597.5 453.5,596.5 453.5,595.5C 451.712,595.215 450.045,595.548 448.5,596.5C 432,604.167 415.5,611.833 399,619.5C 394.219,620.419 389.385,620.752 384.5,620.5C 382.306,597.221 381.972,573.887 383.5,550.5C 385.511,544.49 387.511,538.49 389.5,532.5C 390.5,532.5 391.5,532.5 392.5,532.5C 392.5,531.5 392.5,530.5 392.5,529.5 Z M 640.5,565.5 C 645.412,564.974 650.078,565.641 654.5,567.5C 655.69,573.173 655.69,578.84 654.5,584.5C 649.12,584.676 643.787,584.342 638.5,583.5C 638.1,577.346 638.767,571.346 640.5,565.5 Z M 714.5,569.5 C 720.585,568.727 726.252,569.727 731.5,572.5C 732.834,577.974 732.501,583.308 730.5,588.5C 725.167,588.5 719.833,588.5 714.5,588.5C 714.5,582.167 714.5,575.833 714.5,569.5 Z M 614.5,573.5 C 619.833,573.5 625.167,573.5 630.5,573.5C 630.5,577.833 630.5,582.167 630.5,586.5C 606.359,590.577 582.026,592.577 557.5,592.5C 557.5,588.167 557.5,583.833 557.5,579.5C 571.564,579.656 585.564,578.822 599.5,577C 604.781,576.462 609.781,575.295 614.5,573.5 Z"/></g>
<g><path style="opacity:1" fill="#fbfdf7" d="M 391.5,247.5 C 402.181,248.075 412.848,248.909 423.5,250C 429.426,252.46 435.426,254.626 441.5,256.5C 441.5,257.5 441.5,258.5 441.5,259.5C 442.5,259.5 443.5,259.5 444.5,259.5C 444.5,260.5 444.5,261.5 444.5,262.5C 445.5,262.5 446.5,262.5 447.5,262.5C 449.98,268.106 451.98,273.939 453.5,280C 452.038,287.384 450.372,294.717 448.5,302C 447.484,304.176 445.818,305.343 443.5,305.5C 442.833,307.5 442.167,309.5 441.5,311.5C 440.5,311.5 439.5,311.5 438.5,311.5C 437.833,313.5 437.167,315.5 436.5,317.5C 435.5,317.5 434.5,317.5 433.5,317.5C 432.833,319.5 432.167,321.5 431.5,323.5C 428.5,324.833 425.5,326.167 422.5,327.5C 422.719,328.675 422.386,329.675 421.5,330.5C 396.301,347.793 368.967,360.626 339.5,369C 327.903,371.852 316.237,372.186 304.5,370C 297.345,367.054 290.345,363.887 283.5,360.5C 283.5,359.5 283.5,358.5 283.5,357.5C 281.857,357.52 280.524,356.853 279.5,355.5C 275.191,349.906 272.857,343.573 272.5,336.5C 273.766,331.198 274.933,325.865 276,320.5C 279.667,313.5 283.333,306.5 287,299.5C 287.333,304.5 287.667,309.5 288,314.5C 289.969,317.199 291.136,320.199 291.5,323.5C 292.5,323.5 293.5,323.5 294.5,323.5C 294.5,324.5 294.5,325.5 294.5,326.5C 295.5,326.5 296.5,326.5 297.5,326.5C 297.5,327.5 297.5,328.5 297.5,329.5C 318.036,336.751 337.369,334.418 355.5,322.5C 355.5,321.5 355.5,320.5 355.5,319.5C 357.5,318.833 359.5,318.167 361.5,317.5C 361.5,316.5 361.5,315.5 361.5,314.5C 362.5,314.5 363.5,314.5 364.5,314.5C 366.388,310.409 368.555,306.409 371,302.5C 372.483,293.213 372.816,283.879 372,274.5C 370.387,270.344 368.553,266.344 366.5,262.5C 365.5,262.5 364.5,262.5 363.5,262.5C 363.5,261.5 363.5,260.5 363.5,259.5C 360.647,258.113 357.647,256.946 354.5,256C 366.512,251.666 378.845,248.833 391.5,247.5 Z"/></g>
<g><path style="opacity:1" fill="#fbfdf7" d="M 649.5,268.5 C 659.239,268.456 668.906,269.29 678.5,271C 679.973,271.71 680.64,272.876 680.5,274.5C 684.059,274.284 687.559,274.618 691,275.5C 694.361,277.454 697.861,279.121 701.5,280.5C 702.853,281.524 703.52,282.857 703.5,284.5C 705.143,284.48 706.476,285.147 707.5,286.5C 708.994,289.148 709.994,291.982 710.5,295C 709.736,302.106 708.07,308.939 705.5,315.5C 704.5,315.5 703.5,315.5 702.5,315.5C 701.68,319.576 699.347,322.243 695.5,323.5C 695.167,326.5 693.5,328.167 690.5,328.5C 690.5,329.5 690.5,330.5 690.5,331.5C 682.19,336.11 673.69,340.443 665,344.5C 652.5,348.667 640,352.833 627.5,357C 612.933,360.406 598.266,361.073 583.5,359C 574.322,355.445 565.322,351.612 556.5,347.5C 556.5,346.5 556.5,345.5 556.5,344.5C 552.424,343.68 549.757,341.347 548.5,337.5C 547.5,337.5 546.5,337.5 545.5,337.5C 545.5,336.5 545.5,335.5 545.5,334.5C 544.5,334.5 543.5,334.5 542.5,334.5C 542.045,332.633 541.378,330.8 540.5,329C 540.796,327.112 541.296,325.278 542,323.5C 542.483,324.448 542.649,325.448 542.5,326.5C 543.5,326.5 544.5,326.5 545.5,326.5C 545.5,327.5 545.5,328.5 545.5,329.5C 548.217,330.305 550.717,331.638 553,333.5C 566.533,336.612 579.867,335.946 593,331.5C 597.273,328.314 601.773,325.647 606.5,323.5C 606.833,320.5 608.5,318.833 611.5,318.5C 612.044,316.42 612.878,314.42 614,312.5C 614.767,301.133 614.601,289.8 613.5,278.5C 612.5,278.5 611.5,278.5 610.5,278.5C 610.5,277.167 610.5,275.833 610.5,274.5C 623.477,271.618 636.477,269.618 649.5,268.5 Z"/></g>
<g><path style="opacity:1" fill="#fbfdf7" d="M 418.5,422.5 C 440.178,422.318 461.845,422.651 483.5,423.5C 484.412,427.131 484.579,430.797 484,434.5C 482.208,438.425 480.708,442.425 479.5,446.5C 478.5,446.5 477.5,446.5 476.5,446.5C 476.5,447.5 476.5,448.5 476.5,449.5C 473.749,449.528 471.415,450.528 469.5,452.5C 463.221,451.413 456.887,450.58 450.5,450C 445.587,447.533 440.587,445.366 435.5,443.5C 435.5,442.5 435.5,441.5 435.5,440.5C 431.424,439.68 428.757,437.347 427.5,433.5C 426.5,433.5 425.5,433.5 424.5,433.5C 422.827,429.657 420.827,425.991 418.5,422.5 Z"/></g>
</svg>
