<?xml version="1.0" encoding="UTF-8"?>
<!DOCTYPE svg PUBLIC "-//W3C//DTD SVG 1.1//EN" "http://www.w3.org/Graphics/SVG/1.1/DTD/svg11.dtd">
<svg xmlns="http://www.w3.org/2000/svg" version="1.1" width="145px" height="145px" style="shape-rendering:geometricPrecision; text-rendering:geometricPrecision; image-rendering:optimizeQuality; fill-rule:evenodd; clip-rule:evenodd" xmlns:xlink="http://www.w3.org/1999/xlink">
<g><path style="opacity:1" fill="#d5ceb3" d="M 35.5,-0.5 C 38.8333,-0.5 42.1667,-0.5 45.5,-0.5C 55.4428,2.42653 63.1095,8.42653 68.5,17.5C 71.6872,14.1472 74.6872,10.6472 77.5,7C 88.9253,-1.52559 100.259,-1.19226 111.5,8C 117.638,15.0493 119.805,23.216 118,32.5C 117.115,42.5933 113.281,51.2599 106.5,58.5C 105.167,59.1667 103.833,59.8333 102.5,60.5C 97.6362,61.9 92.6362,62.5666 87.5,62.5C 79.6238,60.4516 73.6238,55.9516 69.5,49C 65.446,48.3064 61.446,48.4731 57.5,49.5C 52.7732,49.779 48.1065,50.4456 43.5,51.5C 43.3257,48.237 41.659,46.5704 38.5,46.5C 38.448,48.9029 38.7814,51.2362 39.5,53.5C 36.779,53.9628 34.1123,54.6295 31.5,55.5C 16.4958,42.7939 13.3291,27.4605 22,9.5C 25.5795,4.73071 30.0795,1.39738 35.5,-0.5 Z"/></g>
<g><path style="opacity:1" fill="#874f00" d="M 43.5,51.5 C 44.9813,56.0117 45.648,60.6784 45.5,65.5C 44.1779,65.67 43.0113,65.3366 42,64.5C 41.5812,60.6083 40.7479,56.9416 39.5,53.5C 38.7814,51.2362 38.448,48.9029 38.5,46.5C 41.659,46.5704 43.3257,48.237 43.5,51.5 Z"/></g>
<g><path style="opacity:1" fill="#874f00" d="M 87.5,62.5 C 93.9741,86.8566 93.9741,111.19 87.5,135.5C 78.6387,137.261 69.6387,137.928 60.5,137.5C 63.5179,131.954 65.3513,125.954 66,119.5C 66.6667,106.833 66.6667,94.1667 66,81.5C 65.346,70.2151 62.5127,59.5484 57.5,49.5C 61.446,48.4731 65.446,48.3064 69.5,49C 73.6238,55.9516 79.6238,60.4516 87.5,62.5 Z"/></g>
<g><path style="opacity:1" fill="#f0bb00" d="M 57.5,49.5 C 62.5127,59.5484 65.346,70.2151 66,81.5C 66.6667,94.1667 66.6667,106.833 66,119.5C 65.3513,125.954 63.5179,131.954 60.5,137.5C 59.1667,137.5 57.8333,137.5 56.5,137.5C 55.596,136.791 55.2627,135.791 55.5,134.5C 53.6203,134.229 52.287,134.896 51.5,136.5C 45.4993,134.833 39.4993,133.166 33.5,131.5C 33.1788,129.952 32.1788,129.285 30.5,129.5C 3.97894,117.807 -2.8544,98.8072 10,72.5C 13.0623,69.2678 16.229,66.2678 19.5,63.5C 19.9333,66.2589 21.6,67.5922 24.5,67.5C 24.552,65.0971 24.2186,62.7638 23.5,60.5C 26.1667,58.8333 28.8333,57.1667 31.5,55.5C 34.1123,54.6295 36.779,53.9628 39.5,53.5C 40.7479,56.9416 41.5812,60.6083 42,64.5C 43.0113,65.3366 44.1779,65.67 45.5,65.5C 45.648,60.6784 44.9813,56.0117 43.5,51.5C 48.1065,50.4456 52.7732,49.779 57.5,49.5 Z"/></g>
<g><path style="opacity:1" fill="#874f00" d="M 23.5,60.5 C 24.2186,62.7638 24.552,65.0971 24.5,67.5C 21.6,67.5922 19.9333,66.2589 19.5,63.5C 18.1667,59.5 16.8333,55.5 15.5,51.5C 16.8221,51.33 17.9887,51.6634 19,52.5C 20.7774,55.0594 22.2774,57.7261 23.5,60.5 Z"/></g>
<g><path style="opacity:1" fill="#884f00" d="M 106.5,58.5 C 109.913,61.7203 113.579,64.7203 117.5,67.5C 119.937,69.408 121.604,71.7413 122.5,74.5C 125.59,88.0314 126.257,101.698 124.5,115.5C 123.139,117.527 121.473,119.194 119.5,120.5C 117.027,120.088 115.694,121.088 115.5,123.5C 112.14,125.18 108.807,126.847 105.5,128.5C 112.562,105.534 111.562,82.867 102.5,60.5C 103.833,59.8333 105.167,59.1667 106.5,58.5 Z"/></g>
<g><path style="opacity:1" fill="#f0bb00" d="M 102.5,60.5 C 111.562,82.867 112.562,105.534 105.5,128.5C 104.833,129.167 104.167,129.833 103.5,130.5C 101.62,130.229 100.287,130.896 99.5,132.5C 95.4993,133.5 91.4993,134.5 87.5,135.5C 93.9741,111.19 93.9741,86.8566 87.5,62.5C 92.6362,62.5666 97.6362,61.9 102.5,60.5 Z"/></g>
<g><path style="opacity:1" fill="#f0bb00" d="M 122.5,74.5 C 125.258,77.678 127.258,81.3447 128.5,85.5C 130.111,89.99 130.778,94.6566 130.5,99.5C 130.921,105.869 128.921,111.203 124.5,115.5C 126.257,101.698 125.59,88.0314 122.5,74.5 Z"/></g>
<g><path style="opacity:1" fill="#874f00" d="M 17.5,84.5 C 20.6973,85.1124 22.0306,87.1124 21.5,90.5C 16.2115,90.5975 14.8781,88.5975 17.5,84.5 Z"/></g>
<g><path style="opacity:1" fill="#d5cfb3" d="M 128.5,85.5 C 133.173,86.8312 137.173,89.1645 140.5,92.5C 140.392,93.4419 140.059,94.2753 139.5,95C 136.185,96.0383 133.185,97.5383 130.5,99.5C 130.778,94.6566 130.111,89.99 128.5,85.5 Z"/></g>
<g><path style="opacity:1" fill="#874f00" d="M 47.5,87.5 C 52.0276,87.8411 53.3609,90.0078 51.5,94C 48.1861,95.1647 46.1861,93.9981 45.5,90.5C 46.1925,89.4822 46.8592,88.4822 47.5,87.5 Z"/></g>
<g><path style="opacity:1" fill="#f1aa00" d="M 11.5,91.5 C 17.0404,91.5283 18.7071,94.0283 16.5,99C 8.14052,100.719 6.47385,98.2186 11.5,91.5 Z"/></g>
<g><path style="opacity:1" fill="#874f00" d="M 25.5,93.5 C 27.973,93.7991 30.1397,94.7991 32,96.5C 34.4373,95.1999 36.9373,94.1999 39.5,93.5C 39.5562,98.1107 37.2229,100.444 32.5,100.5C 27.5479,100.222 25.2146,97.8888 25.5,93.5 Z"/></g>
<g><path style="opacity:1" fill="#f1aa00" d="M 52.5,95.5 C 58.8145,94.641 61.4811,97.3077 60.5,103.5C 57.8127,103.664 55.146,103.497 52.5,103C 49.9142,100.506 49.9142,98.006 52.5,95.5 Z"/></g>
<g><path style="opacity:1" fill="#5a3400" d="M 119.5,120.5 C 120.933,122.558 121.6,124.892 121.5,127.5C 118.682,127.343 116.682,126.009 115.5,123.5C 115.694,121.088 117.027,120.088 119.5,120.5 Z"/></g>
<g><path style="opacity:1" fill="#5a3400" d="M 30.5,129.5 C 32.1788,129.285 33.1788,129.952 33.5,131.5C 33.826,134.757 32.4927,136.257 29.5,136C 28.8182,133.812 29.1516,131.645 30.5,129.5 Z"/></g>
<g><path style="opacity:1" fill="#5a3400" d="M 103.5,130.5 C 103.5,132.5 103.5,134.5 103.5,136.5C 100.5,136.833 99.1667,135.5 99.5,132.5C 100.287,130.896 101.62,130.229 103.5,130.5 Z"/></g>
<g><path style="opacity:1" fill="#5a3400" d="M 56.5,137.5 C 56.5,138.833 56.5,140.167 56.5,141.5C 53.1667,141.5 51.5,139.833 51.5,136.5C 52.287,134.896 53.6203,134.229 55.5,134.5C 55.2627,135.791 55.596,136.791 56.5,137.5 Z"/></g>
</svg>
