<?xml version="1.0" encoding="UTF-8"?>
<!DOCTYPE svg PUBLIC "-//W3C//DTD SVG 1.1//EN" "http://www.w3.org/Graphics/SVG/1.1/DTD/svg11.dtd">
<svg xmlns="http://www.w3.org/2000/svg" version="1.1" width="213px" height="270px" style="shape-rendering:geometricPrecision; text-rendering:geometricPrecision; image-rendering:optimizeQuality; fill-rule:evenodd; clip-rule:evenodd" xmlns:xlink="http://www.w3.org/1999/xlink">
<g><path style="opacity:1" fill="#fffefe" d="M 107.5,-0.5 C 109.5,-0.5 111.5,-0.5 113.5,-0.5C 125.429,9.93659 136.262,21.6033 146,34.5C 150.918,42.0001 155.584,49.6667 160,57.5C 162.399,63.3634 164.399,69.3634 166,75.5C 175.253,82.0824 183.92,89.4157 192,97.5C 198.377,106.257 203.711,115.59 208,125.5C 213.308,141.729 210.808,156.563 200.5,170C 199.167,170.667 197.833,170.667 196.5,170C 185.821,162.662 173.988,158.495 161,157.5C 149.4,161.237 142.9,168.903 141.5,180.5C 137.079,182.792 132.912,185.459 129,188.5C 128.5,187.333 127.667,186.5 126.5,186C 120.399,183.019 114.065,180.519 107.5,178.5C 106.522,178.977 105.689,179.643 105,180.5C 104.621,188.596 105.787,196.429 108.5,204C 114.206,203.472 118.873,200.805 122.5,196C 124.39,194.888 126.39,194.054 128.5,193.5C 132.984,194.716 137.318,196.216 141.5,198C 145.141,204.561 148.975,211.061 153,217.5C 157.202,221.367 161.035,225.533 164.5,230C 166.403,230.774 168.07,230.44 169.5,229C 162.926,223.096 157.092,216.596 152,209.5C 145.92,196.916 144.92,183.916 149,170.5C 149.333,170.167 149.667,169.833 150,169.5C 151.167,171.333 152.333,173.167 153.5,175C 154.793,175.49 156.127,175.657 157.5,175.5C 156.992,172.148 155.658,169.148 153.5,166.5C 158.416,160.22 163.083,160.553 167.5,167.5C 169.62,166.597 169.954,165.263 168.5,163.5C 169.167,163.167 169.833,162.833 170.5,162.5C 188.966,166.473 201.8,177.139 209,194.5C 210.12,198.974 211.286,203.307 212.5,207.5C 212.5,215.167 212.5,222.833 212.5,230.5C 210.415,245.009 204.748,258.009 195.5,269.5C 175.833,269.5 156.167,269.5 136.5,269.5C 136.287,263.374 134.953,257.541 132.5,252C 136.333,248.167 140.167,244.333 144,240.5C 146.583,236.014 145.416,232.848 140.5,231C 134.55,229.721 128.55,228.721 122.5,228C 118.547,221.418 113.88,215.418 108.5,210C 106.833,210.667 105.167,210.667 103.5,210C 99.7105,215.079 96.0438,220.245 92.5,225.5C 85.2897,226.64 78.2897,228.307 71.5,230.5C 65.7994,227.646 60.4661,224.146 55.5,220C 53.8659,219.506 52.1992,219.34 50.5,219.5C 50.33,220.822 50.6634,221.989 51.5,223C 63.089,228.585 72.9223,236.418 81,246.5C 82.6398,248.579 83.8064,250.912 84.5,253.5C 82.6649,254.192 80.8316,253.858 79,252.5C 76.1738,253.917 76.0072,255.417 78.5,257C 81.1168,257.822 83.7835,258.322 86.5,258.5C 86.5,259.833 86.5,261.167 86.5,262.5C 84.5,262.5 82.5,262.5 80.5,262.5C 80.33,263.822 80.6634,264.989 81.5,266C 83.4727,266.495 85.4727,266.662 87.5,266.5C 87.5,267.5 87.5,268.5 87.5,269.5C 62.8333,269.5 38.1667,269.5 13.5,269.5C 7.29239,264.294 2.62572,257.96 -0.5,250.5C -0.5,244.5 -0.5,238.5 -0.5,232.5C 1.92519,223.978 5.75852,215.978 11,208.5C 17.5835,201.579 24.4168,195.079 31.5,189C 0.775283,170.009 -7.72472,143.509 6,109.5C 11.4326,98.9632 18.0993,89.2965 26,80.5C 32.465,56.7362 43.2983,35.2362 58.5,16C 59.8989,15.4054 61.2322,15.5721 62.5,16.5C 74.7949,30.0874 84.2949,45.4208 91,62.5C 94.8062,40.9384 100.306,19.9384 107.5,-0.5 Z M 136.5,90.5 C 149.098,91.0487 159.598,96.0487 168,105.5C 172.078,109.984 175.411,114.984 178,120.5C 180.806,133.387 176.306,142.553 164.5,148C 143.59,151.043 129.09,142.876 121,123.5C 117.963,108.44 123.129,97.4401 136.5,90.5 Z M 59.5,97.5 C 86.4457,97.7571 97.6124,111.09 93,137.5C 83.4914,153.266 69.9914,157.766 52.5,151C 39.0581,147.554 33.8914,139.054 37,125.5C 41.3631,113.638 48.8631,104.304 59.5,97.5 Z M 126.5,153.5 C 130.409,152.737 131.742,154.07 130.5,157.5C 125.094,159.435 123.761,158.101 126.5,153.5 Z M 136.5,167.5 C 141.384,167.896 141.718,169.396 137.5,172C 133.931,174.523 129.931,175.856 125.5,176C 117.337,177.05 109.337,176.383 101.5,174C 100.663,172.989 100.33,171.822 100.5,170.5C 111.542,173.289 122.542,173.123 133.5,170C 134.571,169.148 135.571,168.315 136.5,167.5 Z M 43.5,189.5 C 51.6047,191.878 59.938,193.045 68.5,193C 69.9733,193.71 70.6399,194.876 70.5,196.5C 62.7795,196.762 55.1128,196.262 47.5,195C 45.221,194.527 43.221,193.527 41.5,192C 42.3805,191.292 43.0472,190.458 43.5,189.5 Z M 73.5,192.5 C 76.8606,193.203 77.1939,194.537 74.5,196.5C 72.3576,195.563 72.0243,194.23 73.5,192.5 Z"/></g>
<g><path style="opacity:1" fill="#fefffe" d="M 137.5,94.5 C 149.581,95.4607 159.414,100.794 167,110.5C 174.884,118.324 176.551,127.324 172,137.5C 168.25,142.542 163.25,144.875 157,144.5C 141.367,144.353 130.7,137.019 125,122.5C 124.211,116.763 124.544,111.097 126,105.5C 127.416,112.75 131.582,115.083 138.5,112.5C 140.029,110.293 140.695,107.793 140.5,105C 141.222,100.972 139.889,97.9716 136.5,96C 137.056,95.6174 137.389,95.1174 137.5,94.5 Z"/></g>
<g><path style="opacity:1" fill="#fefffe" d="M 60.5,101.5 C 63.5719,101.183 66.5719,101.516 69.5,102.5C 62.6162,113.146 65.6162,117.98 78.5,117C 82.0268,116.14 84.1934,113.973 85,110.5C 94.4195,125.451 91.9195,137.951 77.5,148C 67.193,150.418 57.193,149.418 47.5,145C 42.163,142.346 39.8296,138.013 40.5,132C 42.5233,118.786 49.19,108.62 60.5,101.5 Z"/></g>
<g><path style="opacity:1" fill="#fec90d" d="M 136.5,269.5 C 121.5,269.5 106.5,269.5 91.5,269.5C 91.7986,261.27 89.9652,253.604 86,246.5C 81.3294,240.997 76.496,235.664 71.5,230.5C 78.2897,228.307 85.2897,226.64 92.5,225.5C 96.0438,220.245 99.7105,215.079 103.5,210C 105.167,210.667 106.833,210.667 108.5,210C 113.88,215.418 118.547,221.418 122.5,228C 128.55,228.721 134.55,229.721 140.5,231C 145.416,232.848 146.583,236.014 144,240.5C 140.167,244.333 136.333,248.167 132.5,252C 134.953,257.541 136.287,263.374 136.5,269.5 Z"/></g>
<g><path style="opacity:1" fill="#fefffe" d="M 96.5,256.5 C 97.675,256.281 98.675,256.614 99.5,257.5C 100.348,259.409 100.682,261.409 100.5,263.5C 96.3219,262.812 94.9886,260.478 96.5,256.5 Z"/></g>
<g><path style="opacity:1" fill="#fefffe" d="M 102.5,259.5 C 105.779,260.031 107.113,262.031 106.5,265.5C 102.262,265.28 100.928,263.28 102.5,259.5 Z"/></g>
</svg>
