<?xml version="1.0" encoding="UTF-8"?>
<!DOCTYPE svg PUBLIC "-//W3C//DTD SVG 1.1//EN" "http://www.w3.org/Graphics/SVG/1.1/DTD/svg11.dtd">
<svg xmlns="http://www.w3.org/2000/svg" version="1.1" width="150px" height="150px" style="shape-rendering:geometricPrecision; text-rendering:geometricPrecision; image-rendering:optimizeQuality; fill-rule:evenodd; clip-rule:evenodd" xmlns:xlink="http://www.w3.org/1999/xlink">
<g><path style="opacity:1" fill="#d5ceb3" d="M 109.5,62.5 C 108.167,63.1667 106.833,63.8333 105.5,64.5C 100.636,65.9 95.6362,66.5666 90.5,66.5C 82.6238,64.4516 76.6238,59.9516 72.5,53C 68.446,52.3064 64.446,52.4731 60.5,53.5C 55.7732,53.779 51.1065,54.4456 46.5,55.5C 46.3257,52.237 44.659,50.5704 41.5,50.5C 41.448,52.9029 41.7814,55.2362 42.5,57.5C 39.779,57.9628 37.1123,58.6295 34.5,59.5C 19.4958,46.7939 16.3291,31.4605 25,13.5C 35.4159,1.90557 47.2492,0.40557 60.5,9C 64.725,12.7218 68.3916,16.8885 71.5,21.5C 76.9883,12.5134 84.8216,6.84678 95,4.5C 117.261,7.79218 125.595,20.4588 120,42.5C 118.304,50.2297 114.804,56.8964 109.5,62.5 Z"/></g>
<g><path style="opacity:1" fill="#874f00" d="M 46.5,55.5 C 47.9813,60.0117 48.648,64.6784 48.5,69.5C 47.1779,69.67 46.0113,69.3366 45,68.5C 44.5812,64.6083 43.7479,60.9416 42.5,57.5C 41.7814,55.2362 41.448,52.9029 41.5,50.5C 44.659,50.5704 46.3257,52.237 46.5,55.5 Z"/></g>
<g><path style="opacity:1" fill="#874f00" d="M 90.5,66.5 C 96.9741,90.8566 96.9741,115.19 90.5,139.5C 81.6387,141.261 72.6387,141.928 63.5,141.5C 66.5179,135.954 68.3513,129.954 69,123.5C 69.6667,110.833 69.6667,98.1667 69,85.5C 68.346,74.2151 65.5127,63.5484 60.5,53.5C 64.446,52.4731 68.446,52.3064 72.5,53C 76.6238,59.9516 82.6238,64.4516 90.5,66.5 Z"/></g>
<g><path style="opacity:1" fill="#f0bb00" d="M 60.5,53.5 C 65.5127,63.5484 68.346,74.2151 69,85.5C 69.6667,98.1667 69.6667,110.833 69,123.5C 68.3513,129.954 66.5179,135.954 63.5,141.5C 62.1667,141.5 60.8333,141.5 59.5,141.5C 58.596,140.791 58.2627,139.791 58.5,138.5C 56.6203,138.229 55.287,138.896 54.5,140.5C 48.4993,138.833 42.4993,137.166 36.5,135.5C 36.1788,133.952 35.1788,133.285 33.5,133.5C 6.97894,121.807 0.145604,102.807 13,76.5C 16.0623,73.2678 19.229,70.2678 22.5,67.5C 22.9333,70.2589 24.6,71.5922 27.5,71.5C 27.552,69.0971 27.2186,66.7638 26.5,64.5C 29.1667,62.8333 31.8333,61.1667 34.5,59.5C 37.1123,58.6295 39.779,57.9628 42.5,57.5C 43.7479,60.9416 44.5812,64.6083 45,68.5C 46.0113,69.3366 47.1779,69.67 48.5,69.5C 48.648,64.6784 47.9813,60.0117 46.5,55.5C 51.1065,54.4456 55.7732,53.779 60.5,53.5 Z"/></g>
<g><path style="opacity:1" fill="#874f00" d="M 26.5,64.5 C 27.2186,66.7638 27.552,69.0971 27.5,71.5C 24.6,71.5922 22.9333,70.2589 22.5,67.5C 21.1667,63.5 19.8333,59.5 18.5,55.5C 19.8221,55.33 20.9887,55.6634 22,56.5C 23.7774,59.0594 25.2774,61.7261 26.5,64.5 Z"/></g>
<g><path style="opacity:1" fill="#884f00" d="M 109.5,62.5 C 112.913,65.7203 116.579,68.7203 120.5,71.5C 122.937,73.408 124.604,75.7413 125.5,78.5C 128.59,92.0314 129.257,105.698 127.5,119.5C 126.139,121.527 124.473,123.194 122.5,124.5C 120.027,124.088 118.694,125.088 118.5,127.5C 115.14,129.18 111.807,130.847 108.5,132.5C 115.562,109.534 114.562,86.867 105.5,64.5C 106.833,63.8333 108.167,63.1667 109.5,62.5 Z"/></g>
<g><path style="opacity:1" fill="#f0bb00" d="M 105.5,64.5 C 114.562,86.867 115.562,109.534 108.5,132.5C 107.833,133.167 107.167,133.833 106.5,134.5C 104.62,134.229 103.287,134.896 102.5,136.5C 98.4993,137.5 94.4993,138.5 90.5,139.5C 96.9741,115.19 96.9741,90.8566 90.5,66.5C 95.6362,66.5666 100.636,65.9 105.5,64.5 Z"/></g>
<g><path style="opacity:1" fill="#f0bb00" d="M 125.5,78.5 C 128.258,81.678 130.258,85.3447 131.5,89.5C 133.111,93.99 133.778,98.6566 133.5,103.5C 133.921,109.869 131.921,115.203 127.5,119.5C 129.257,105.698 128.59,92.0314 125.5,78.5 Z"/></g>
<g><path style="opacity:1" fill="#874f00" d="M 20.5,88.5 C 23.6973,89.1124 25.0306,91.1124 24.5,94.5C 19.2115,94.5975 17.8781,92.5975 20.5,88.5 Z"/></g>
<g><path style="opacity:1" fill="#d5cfb3" d="M 131.5,89.5 C 136.173,90.8312 140.173,93.1645 143.5,96.5C 143.392,97.4419 143.059,98.2753 142.5,99C 139.185,100.038 136.185,101.538 133.5,103.5C 133.778,98.6566 133.111,93.99 131.5,89.5 Z"/></g>
<g><path style="opacity:1" fill="#874f00" d="M 50.5,91.5 C 55.0276,91.8411 56.3609,94.0078 54.5,98C 51.1861,99.1647 49.1861,97.9981 48.5,94.5C 49.1925,93.4822 49.8592,92.4822 50.5,91.5 Z"/></g>
<g><path style="opacity:1" fill="#f1aa00" d="M 14.5,95.5 C 20.0404,95.5283 21.7071,98.0283 19.5,103C 11.1405,104.719 9.47385,102.219 14.5,95.5 Z"/></g>
<g><path style="opacity:1" fill="#874f00" d="M 28.5,97.5 C 30.973,97.7991 33.1397,98.7991 35,100.5C 37.4373,99.1999 39.9373,98.1999 42.5,97.5C 42.5562,102.111 40.2229,104.444 35.5,104.5C 30.5479,104.222 28.2146,101.889 28.5,97.5 Z"/></g>
<g><path style="opacity:1" fill="#f1aa00" d="M 55.5,99.5 C 61.8145,98.641 64.4811,101.308 63.5,107.5C 60.8127,107.664 58.146,107.497 55.5,107C 52.9142,104.506 52.9142,102.006 55.5,99.5 Z"/></g>
<g><path style="opacity:1" fill="#5a3400" d="M 122.5,124.5 C 123.933,126.558 124.6,128.892 124.5,131.5C 121.682,131.343 119.682,130.009 118.5,127.5C 118.694,125.088 120.027,124.088 122.5,124.5 Z"/></g>
<g><path style="opacity:1" fill="#5a3400" d="M 33.5,133.5 C 35.1788,133.285 36.1788,133.952 36.5,135.5C 36.826,138.757 35.4927,140.257 32.5,140C 31.8182,137.812 32.1516,135.645 33.5,133.5 Z"/></g>
<g><path style="opacity:1" fill="#5a3400" d="M 106.5,134.5 C 106.5,136.5 106.5,138.5 106.5,140.5C 103.5,140.833 102.167,139.5 102.5,136.5C 103.287,134.896 104.62,134.229 106.5,134.5 Z"/></g>
<g><path style="opacity:1" fill="#5a3400" d="M 59.5,141.5 C 59.5,142.833 59.5,144.167 59.5,145.5C 56.1667,145.5 54.5,143.833 54.5,140.5C 55.287,138.896 56.6203,138.229 58.5,138.5C 58.2627,139.791 58.596,140.791 59.5,141.5 Z"/></g>
</svg>
